<svg width="2005" height="1122" viewBox="0 0 2005 1122" fill="none" xmlns="http://www.w3.org/2000/svg">

<rect x="1380.92" y="313.242" width="260.355" height="22.1203" transform="rotate(-64.1689 1380.92 313.242)" fill="#B15858" style="fill:#B15858;fill:color(display-p3 0.6946 0.3458 0.3458);fill-opacity:1;"/>
<rect x="1740.17" y="516.788" width="260.355" height="22.1203" transform="rotate(-118.757 1740.17 516.788)" fill="#919191" style="fill:#919191;fill:color(display-p3 0.5701 0.5701 0.5701);fill-opacity:1;"/>
<rect x="1746.11" y="518.435" width="407.209" height="23.8356" transform="rotate(-153.741 1746.11 518.435)" fill="#919191" style="fill:#919191;fill:color(display-p3 0.5701 0.5701 0.5701);fill-opacity:1;"/>
<rect x="1631.14" y="280.897" width="260.355" height="22.1203" transform="rotate(167.349 1631.14 280.897)" fill="#919191" style="fill:#919191;fill:color(display-p3 0.5701 0.5701 0.5701);fill-opacity:1;"/>
<path d="M1914.42 952.401L1892.92 750.401L1591.92 778.401L1847.92 695.401L1928.92 531.901M1914.42 952.401L1394.92 932.174M1914.42 952.401L1705.42 1113.9M1208.92 1044.4L1185.42 881.401L1387.92 931.901L1394.92 932.174M1208.92 1044.4L1288.92 1106.4M1208.92 1044.4L1394.92 932.174" stroke="#919191" style="stroke:#919191;stroke:color(display-p3 0.5701 0.5701 0.5701);stroke-opacity:1;" stroke-width="18"/>
<path d="M1593.92 778.401L1392.92 932.901M1932.92 530.901L1895.92 746.401" stroke="#B15858" style="stroke:#B15858;stroke:color(display-p3 0.6946 0.3458 0.3458);stroke-opacity:1;" stroke-width="18"/>
<rect x="1884.8" y="224.484" width="260.355" height="22.1203" transform="rotate(167.349 1884.8 224.484)" fill="#919191" style="fill:#919191;fill:color(display-p3 0.5701 0.5701 0.5701);fill-opacity:1;"/>
<path d="M2003.36 21.3844L1760.87 70.9992L1756.01 49.3229L2004.29 1.34722e-05L2003.36 21.3844Z" fill="#919191" style="fill:#919191;fill:color(display-p3 0.5701 0.5701 0.5701);fill-opacity:1;"/>
<path d="M2002.28 122.762L1884.57 228.929L1866.13 208.076L2004.27 92.6913L2002.28 122.762Z" fill="#919191" style="fill:#919191;fill:color(display-p3 0.5701 0.5701 0.5701);fill-opacity:1;"/>
<path d="M1774.59 69.1377L1638.11 270.503L1621.92 255.428L1758.4 54.0622L1774.59 69.1377Z" fill="#919191" style="fill:#919191;fill:color(display-p3 0.5701 0.5701 0.5701);fill-opacity:1;"/>
<path d="M1774.59 69.1377L1514.85 86.9695L1513.33 64.9012L1773.07 47.0693L1774.59 69.1377Z" fill="#919191" style="fill:#919191;fill:color(display-p3 0.5701 0.5701 0.5701);fill-opacity:1;"/>
<circle cx="1384.92" cy="325.901" r="21" fill="#A0E0EB" style="fill:#A0E0EB;fill:color(display-p3 0.6268 0.8787 0.9232);fill-opacity:1;"/>
<path d="M1401.32 325.901C1401.32 334.962 1393.98 342.307 1384.92 342.307C1375.86 342.307 1368.51 334.962 1368.51 325.901C1368.51 316.84 1375.86 309.495 1384.92 309.495C1393.98 309.495 1401.32 316.84 1401.32 325.901Z" fill="black" style="fill:black;fill-opacity:1;"/>
<circle cx="1384.92" cy="325.901" r="8.53125" fill="#D9D9D9" style="fill:#D9D9D9;fill:color(display-p3 0.8510 0.8510 0.8510);fill-opacity:1;"/>
<circle cx="1745.92" cy="500.901" r="21" fill="#A0E0EB" style="fill:#A0E0EB;fill:color(display-p3 0.6268 0.8787 0.9232);fill-opacity:1;"/>
<path d="M1762.32 500.901C1762.32 509.962 1754.98 517.307 1745.92 517.307C1736.86 517.307 1729.51 509.962 1729.51 500.901C1729.51 491.84 1736.86 484.495 1745.92 484.495C1754.98 484.495 1762.32 491.84 1762.32 500.901Z" fill="black" style="fill:black;fill-opacity:1;"/>
<circle cx="1745.92" cy="500.901" r="8.53125" fill="#D9D9D9" style="fill:#D9D9D9;fill:color(display-p3 0.8510 0.8510 0.8510);fill-opacity:1;"/>
<circle cx="1625.92" cy="272.901" r="21" fill="#A0E0EB" style="fill:#A0E0EB;fill:color(display-p3 0.6268 0.8787 0.9232);fill-opacity:1;"/>
<path d="M1642.32 272.901C1642.32 281.962 1634.98 289.307 1625.92 289.307C1616.86 289.307 1609.51 281.962 1609.51 272.901C1609.51 263.84 1616.86 256.495 1625.92 256.495C1634.98 256.495 1642.32 263.84 1642.32 272.901Z" fill="black" style="fill:black;fill-opacity:1;"/>
<circle cx="1625.92" cy="272.901" r="8.53125" fill="#D9D9D9" style="fill:#D9D9D9;fill:color(display-p3 0.8510 0.8510 0.8510);fill-opacity:1;"/>
<circle cx="1879.92" cy="213.901" r="21" fill="#A0E0EB" style="fill:#A0E0EB;fill:color(display-p3 0.6268 0.8787 0.9232);fill-opacity:1;"/>
<path d="M1896.32 213.901C1896.32 222.962 1888.98 230.307 1879.92 230.307C1870.86 230.307 1863.51 222.962 1863.51 213.901C1863.51 204.84 1870.86 197.495 1879.92 197.495C1888.98 197.495 1896.32 204.84 1896.32 213.901Z" fill="black" style="fill:black;fill-opacity:1;"/>
<circle cx="1879.92" cy="213.901" r="8.53125" fill="#D9D9D9" style="fill:#D9D9D9;fill:color(display-p3 0.8510 0.8510 0.8510);fill-opacity:1;"/>
<circle cx="1760.92" cy="60.9012" r="21" fill="#A0E0EB" style="fill:#A0E0EB;fill:color(display-p3 0.6268 0.8787 0.9232);fill-opacity:1;"/>
<path d="M1777.32 60.9012C1777.32 69.9621 1769.98 77.3074 1760.92 77.3074C1751.86 77.3074 1744.51 69.9621 1744.51 60.9012C1744.51 51.8403 1751.86 44.4949 1760.92 44.4949C1769.98 44.4949 1777.32 51.8403 1777.32 60.9012Z" fill="black" style="fill:black;fill-opacity:1;"/>
<circle cx="1760.92" cy="60.9012" r="8.53125" fill="#D9D9D9" style="fill:#D9D9D9;fill:color(display-p3 0.8510 0.8510 0.8510);fill-opacity:1;"/>
<circle cx="1504.92" cy="79.9012" r="21" fill="#A0E0EB" style="fill:#A0E0EB;fill:color(display-p3 0.6268 0.8787 0.9232);fill-opacity:1;"/>
<path d="M1521.32 79.9012C1521.32 88.9621 1513.98 96.3074 1504.92 96.3074C1495.86 96.3074 1488.51 88.9621 1488.51 79.9012C1488.51 70.8403 1495.86 63.4949 1504.92 63.4949C1513.98 63.4949 1521.32 70.8403 1521.32 79.9012Z" fill="black" style="fill:black;fill-opacity:1;"/>
<circle cx="1504.92" cy="79.9012" r="8.53125" fill="#D9D9D9" style="fill:#D9D9D9;fill:color(display-p3 0.8510 0.8510 0.8510);fill-opacity:1;"/>
<rect x="630.407" y="769.561" width="260.355" height="22.1203" transform="rotate(115.831 630.407 769.561)" fill="#B15858" style="fill:#B15858;fill:color(display-p3 0.6946 0.3458 0.3458);fill-opacity:1;"/>
<rect x="517.821" y="140.901" width="193" height="21" transform="rotate(84.4688 517.821 140.901)" fill="#B15858" style="fill:#B15858;fill:color(display-p3 0.6946 0.3458 0.3458);fill-opacity:1;"/>
<rect x="518.033" y="311.888" width="193" height="21" transform="rotate(-3.36324 518.033 311.888)" fill="#B15858" style="fill:#B15858;fill:color(display-p3 0.6946 0.3458 0.3458);fill-opacity:1;"/>
<rect x="504.918" y="144.224" width="193" height="21" transform="rotate(-3.36324 504.918 144.224)" fill="#B15858" style="fill:#B15858;fill:color(display-p3 0.6946 0.3458 0.3458);fill-opacity:1;"/>
<rect x="439.419" y="557.566" width="260.355" height="22.1203" transform="rotate(99.8328 439.419 557.566)" fill="#919191" style="fill:#919191;fill:color(display-p3 0.5701 0.5701 0.5701);fill-opacity:1;"/>
<rect x="440.212" y="561.302" width="260.355" height="22.1203" transform="rotate(43.2858 440.212 561.302)" fill="#919191" style="fill:#919191;fill:color(display-p3 0.5701 0.5701 0.5701);fill-opacity:1;"/>
<rect x="512.085" y="132.901" width="260.355" height="22.1203" transform="rotate(43.2858 512.085 132.901)" fill="#919191" style="fill:#919191;fill:color(display-p3 0.5701 0.5701 0.5701);fill-opacity:1;"/>
<rect x="698.722" y="125.857" width="200.416" height="22.8457" transform="rotate(86.511 698.722 125.857)" fill="#919191" style="fill:#919191;fill:color(display-p3 0.5701 0.5701 0.5701);fill-opacity:1;"/>
<rect x="380.19" y="801.905" width="260.355" height="22.1203" transform="rotate(-12.651 380.19 801.905)" fill="#919191" style="fill:#919191;fill:color(display-p3 0.5701 0.5701 0.5701);fill-opacity:1;"/>
<rect x="126.529" y="858.318" width="260.355" height="22.1203" transform="rotate(-12.651 126.529 858.318)" fill="#919191" style="fill:#919191;fill:color(display-p3 0.5701 0.5701 0.5701);fill-opacity:1;"/>
<path d="M1.01349 1062.98L250.468 1011.87L255.408 1033.88L1.14993e-05 1084.71L1.01349 1062.98Z" fill="#919191" style="fill:#919191;fill:color(display-p3 0.5701 0.5701 0.5701);fill-opacity:1;"/>
<path d="M13.5115 955.659L126.755 853.873L141.39 870.425L9.25834 981.893L13.5115 955.659Z" fill="#919191" style="fill:#919191;fill:color(display-p3 0.5701 0.5701 0.5701);fill-opacity:1;"/>
<path d="M236.736 1013.66L373.22 812.299L389.407 827.374L252.924 1028.74L236.736 1013.66Z" fill="#919191" style="fill:#919191;fill:color(display-p3 0.5701 0.5701 0.5701);fill-opacity:1;"/>
<path d="M236.736 1013.66L496.479 995.833L497.994 1017.9L238.251 1035.73L236.736 1013.66Z" fill="#919191" style="fill:#919191;fill:color(display-p3 0.5701 0.5701 0.5701);fill-opacity:1;"/>
<circle cx="626.407" cy="756.901" r="21" transform="rotate(180 626.407 756.901)" fill="#A0E0EB" style="fill:#A0E0EB;fill:color(display-p3 0.6268 0.8787 0.9232);fill-opacity:1;"/>
<path d="M610.001 756.901C610.001 747.84 617.347 740.495 626.407 740.495C635.468 740.495 642.814 747.84 642.814 756.901C642.814 765.962 635.468 773.307 626.407 773.307C617.347 773.307 610.001 765.962 610.001 756.901Z" fill="black" style="fill:black;fill-opacity:1;"/>
<circle cx="626.407" cy="756.901" r="8.53125" transform="rotate(180 626.407 756.901)" fill="#D9D9D9" style="fill:#D9D9D9;fill:color(display-p3 0.8510 0.8510 0.8510);fill-opacity:1;"/>
<circle cx="427.407" cy="566.901" r="21" transform="rotate(180 427.407 566.901)" fill="#A0E0EB" style="fill:#A0E0EB;fill:color(display-p3 0.6268 0.8787 0.9232);fill-opacity:1;"/>
<path d="M411.001 566.901C411.001 557.84 418.347 550.495 427.407 550.495C436.468 550.495 443.814 557.84 443.814 566.901C443.814 575.962 436.468 583.307 427.407 583.307C418.347 583.307 411.001 575.962 411.001 566.901Z" fill="black" style="fill:black;fill-opacity:1;"/>
<circle cx="427.407" cy="566.901" r="8.53125" transform="rotate(180 427.407 566.901)" fill="#D9D9D9" style="fill:#D9D9D9;fill:color(display-p3 0.8510 0.8510 0.8510);fill-opacity:1;"/>
<circle cx="689.918" cy="141.901" r="21" transform="rotate(180 689.918 141.901)" fill="#A0E0EB" style="fill:#A0E0EB;fill:color(display-p3 0.6268 0.8787 0.9232);fill-opacity:1;"/>
<path d="M673.512 141.901C673.512 132.84 680.857 125.495 689.918 125.495C698.979 125.495 706.325 132.84 706.325 141.901C706.325 150.962 698.979 158.307 689.918 158.307C680.857 158.307 673.512 150.962 673.512 141.901Z" fill="black" style="fill:black;fill-opacity:1;"/>
<circle cx="689.918" cy="141.901" r="8.53125" transform="rotate(180 689.918 141.901)" fill="#D9D9D9" style="fill:#D9D9D9;fill:color(display-p3 0.8510 0.8510 0.8510);fill-opacity:1;"/>
<circle cx="694.918" cy="313.901" r="21" transform="rotate(180 694.918 313.901)" fill="#A0E0EB" style="fill:#A0E0EB;fill:color(display-p3 0.6268 0.8787 0.9232);fill-opacity:1;"/>
<path d="M678.512 313.901C678.512 304.84 685.857 297.495 694.918 297.495C703.979 297.495 711.325 304.84 711.325 313.901C711.325 322.962 703.979 330.307 694.918 330.307C685.857 330.307 678.512 322.962 678.512 313.901Z" fill="black" style="fill:black;fill-opacity:1;"/>
<circle cx="694.918" cy="313.901" r="8.53125" transform="rotate(180 694.918 313.901)" fill="#D9D9D9" style="fill:#D9D9D9;fill:color(display-p3 0.8510 0.8510 0.8510);fill-opacity:1;"/>
<circle cx="1392.92" cy="932.901" r="21" transform="rotate(180 1392.92 932.901)" fill="#A0E0EB" style="fill:#A0E0EB;fill:color(display-p3 0.6268 0.8787 0.9232);fill-opacity:1;"/>
<path d="M1376.51 932.901C1376.51 923.84 1383.86 916.495 1392.92 916.495C1401.98 916.495 1409.32 923.84 1409.32 932.901C1409.32 941.962 1401.98 949.307 1392.92 949.307C1383.86 949.307 1376.51 941.962 1376.51 932.901Z" fill="black" style="fill:black;fill-opacity:1;"/>
<circle cx="1392.92" cy="932.901" r="8.53125" transform="rotate(180 1392.92 932.901)" fill="#D9D9D9" style="fill:#D9D9D9;fill:color(display-p3 0.8510 0.8510 0.8510);fill-opacity:1;"/>
<circle cx="1185.92" cy="878.901" r="21" transform="rotate(180 1185.92 878.901)" fill="#A0E0EB" style="fill:#A0E0EB;fill:color(display-p3 0.6268 0.8787 0.9232);fill-opacity:1;"/>
<path d="M1169.51 878.901C1169.51 869.84 1176.86 862.495 1185.92 862.495C1194.98 862.495 1202.32 869.84 1202.32 878.901C1202.32 887.962 1194.98 895.307 1185.92 895.307C1176.86 895.307 1169.51 887.962 1169.51 878.901Z" fill="black" style="fill:black;fill-opacity:1;"/>
<circle cx="1185.92" cy="878.901" r="8.53125" transform="rotate(180 1185.92 878.901)" fill="#D9D9D9" style="fill:#D9D9D9;fill:color(display-p3 0.8510 0.8510 0.8510);fill-opacity:1;"/>
<circle cx="1215.92" cy="1039.9" r="21" transform="rotate(180 1215.92 1039.9)" fill="#A0E0EB" style="fill:#A0E0EB;fill:color(display-p3 0.6268 0.8787 0.9232);fill-opacity:1;"/>
<path d="M1199.51 1039.9C1199.51 1030.84 1206.86 1023.49 1215.92 1023.49C1224.98 1023.49 1232.32 1030.84 1232.32 1039.9C1232.32 1048.96 1224.98 1056.31 1215.92 1056.31C1206.86 1056.31 1199.51 1048.96 1199.51 1039.9Z" fill="black" style="fill:black;fill-opacity:1;"/>
<circle cx="1215.92" cy="1039.9" r="8.53125" transform="rotate(180 1215.92 1039.9)" fill="#D9D9D9" style="fill:#D9D9D9;fill:color(display-p3 0.8510 0.8510 0.8510);fill-opacity:1;"/>
<circle cx="1595.92" cy="778.901" r="21" transform="rotate(180 1595.92 778.901)" fill="#A0E0EB" style="fill:#A0E0EB;fill:color(display-p3 0.6268 0.8787 0.9232);fill-opacity:1;"/>
<path d="M1579.51 778.901C1579.51 769.84 1586.86 762.495 1595.92 762.495C1604.98 762.495 1612.32 769.84 1612.32 778.901C1612.32 787.962 1604.98 795.307 1595.92 795.307C1586.86 795.307 1579.51 787.962 1579.51 778.901Z" fill="black" style="fill:black;fill-opacity:1;"/>
<circle cx="1595.92" cy="778.901" r="8.53125" transform="rotate(180 1595.92 778.901)" fill="#D9D9D9" style="fill:#D9D9D9;fill:color(display-p3 0.8510 0.8510 0.8510);fill-opacity:1;"/>
<circle cx="1913.92" cy="948.901" r="21" transform="rotate(180 1913.92 948.901)" fill="#A0E0EB" style="fill:#A0E0EB;fill:color(display-p3 0.6268 0.8787 0.9232);fill-opacity:1;"/>
<path d="M1897.51 948.901C1897.51 939.84 1904.86 932.495 1913.92 932.495C1922.98 932.495 1930.32 939.84 1930.32 948.901C1930.32 957.962 1922.98 965.307 1913.92 965.307C1904.86 965.307 1897.51 957.962 1897.51 948.901Z" fill="black" style="fill:black;fill-opacity:1;"/>
<circle cx="1913.92" cy="948.901" r="8.53125" transform="rotate(180 1913.92 948.901)" fill="#D9D9D9" style="fill:#D9D9D9;fill:color(display-p3 0.8510 0.8510 0.8510);fill-opacity:1;"/>
<circle cx="1892.92" cy="748.901" r="21" transform="rotate(180 1892.92 748.901)" fill="#A0E0EB" style="fill:#A0E0EB;fill:color(display-p3 0.6268 0.8787 0.9232);fill-opacity:1;"/>
<path d="M1876.51 748.901C1876.51 739.84 1883.86 732.495 1892.92 732.495C1901.98 732.495 1909.32 739.84 1909.32 748.901C1909.32 757.962 1901.98 765.307 1892.92 765.307C1883.86 765.307 1876.51 757.962 1876.51 748.901Z" fill="black" style="fill:black;fill-opacity:1;"/>
<circle cx="1892.92" cy="748.901" r="8.53125" transform="rotate(180 1892.92 748.901)" fill="#D9D9D9" style="fill:#D9D9D9;fill:color(display-p3 0.8510 0.8510 0.8510);fill-opacity:1;"/>
<circle cx="1929.92" cy="530.901" r="21" transform="rotate(180 1929.92 530.901)" fill="#A0E0EB" style="fill:#A0E0EB;fill:color(display-p3 0.6268 0.8787 0.9232);fill-opacity:1;"/>
<path d="M1913.51 530.901C1913.51 521.84 1920.86 514.495 1929.92 514.495C1938.98 514.495 1946.32 521.84 1946.32 530.901C1946.32 539.962 1938.98 547.307 1929.92 547.307C1920.86 547.307 1913.51 539.962 1913.51 530.901Z" fill="black" style="fill:black;fill-opacity:1;"/>
<circle cx="1929.92" cy="530.901" r="8.53125" transform="rotate(180 1929.92 530.901)" fill="#D9D9D9" style="fill:#D9D9D9;fill:color(display-p3 0.8510 0.8510 0.8510);fill-opacity:1;"/>
<circle cx="526.918" cy="325.901" r="21" transform="rotate(180 526.918 325.901)" fill="#A0E0EB" style="fill:#A0E0EB;fill:color(display-p3 0.6268 0.8787 0.9232);fill-opacity:1;"/>
<path d="M510.512 325.901C510.512 316.84 517.857 309.495 526.918 309.495C535.979 309.495 543.325 316.84 543.325 325.901C543.325 334.962 535.979 342.307 526.918 342.307C517.857 342.307 510.512 334.962 510.512 325.901Z" fill="black" style="fill:black;fill-opacity:1;"/>
<circle cx="526.918" cy="325.901" r="8.53125" transform="rotate(180 526.918 325.901)" fill="#D9D9D9" style="fill:#D9D9D9;fill:color(display-p3 0.8510 0.8510 0.8510);fill-opacity:1;"/>
<circle cx="509.918" cy="153.901" r="21" transform="rotate(180 509.918 153.901)" fill="#A0E0EB" style="fill:#A0E0EB;fill:color(display-p3 0.6268 0.8787 0.9232);fill-opacity:1;"/>
<path d="M493.512 153.901C493.512 144.84 500.857 137.495 509.918 137.495C518.979 137.495 526.325 144.84 526.325 153.901C526.325 162.962 518.979 170.307 509.918 170.307C500.857 170.307 493.512 162.962 493.512 153.901Z" fill="black" style="fill:black;fill-opacity:1;"/>
<circle cx="509.918" cy="153.901" r="8.53125" transform="rotate(180 509.918 153.901)" fill="#D9D9D9" style="fill:#D9D9D9;fill:color(display-p3 0.8510 0.8510 0.8510);fill-opacity:1;"/>
<circle cx="385.407" cy="809.901" r="21" transform="rotate(180 385.407 809.901)" fill="#A0E0EB" style="fill:#A0E0EB;fill:color(display-p3 0.6268 0.8787 0.9232);fill-opacity:1;"/>
<path d="M369.001 809.901C369.001 800.84 376.347 793.495 385.407 793.495C394.468 793.495 401.814 800.84 401.814 809.901C401.814 818.962 394.468 826.307 385.407 826.307C376.347 826.307 369.001 818.962 369.001 809.901Z" fill="black" style="fill:black;fill-opacity:1;"/>
<circle cx="385.407" cy="809.901" r="8.53125" transform="rotate(180 385.407 809.901)" fill="#D9D9D9" style="fill:#D9D9D9;fill:color(display-p3 0.8510 0.8510 0.8510);fill-opacity:1;"/>
<circle cx="131.407" cy="868.901" r="21" transform="rotate(180 131.407 868.901)" fill="#A0E0EB" style="fill:#A0E0EB;fill:color(display-p3 0.6268 0.8787 0.9232);fill-opacity:1;"/>
<path d="M115.001 868.901C115.001 859.84 122.347 852.495 131.407 852.495C140.468 852.495 147.814 859.84 147.814 868.901C147.814 877.962 140.468 885.307 131.407 885.307C122.347 885.307 115.001 877.962 115.001 868.901Z" fill="black" style="fill:black;fill-opacity:1;"/>
<circle cx="131.407" cy="868.901" r="8.53125" transform="rotate(180 131.407 868.901)" fill="#D9D9D9" style="fill:#D9D9D9;fill:color(display-p3 0.8510 0.8510 0.8510);fill-opacity:1;"/>
<circle cx="250.407" cy="1021.9" r="21" transform="rotate(180 250.407 1021.9)" fill="#A0E0EB" style="fill:#A0E0EB;fill:color(display-p3 0.6268 0.8787 0.9232);fill-opacity:1;"/>
<path d="M234.001 1021.9C234.001 1012.84 241.347 1005.49 250.407 1005.49C259.468 1005.49 266.814 1012.84 266.814 1021.9C266.814 1030.96 259.468 1038.31 250.407 1038.31C241.347 1038.31 234.001 1030.96 234.001 1021.9Z" fill="black" style="fill:black;fill-opacity:1;"/>
<circle cx="250.407" cy="1021.9" r="8.53125" transform="rotate(180 250.407 1021.9)" fill="#D9D9D9" style="fill:#D9D9D9;fill:color(display-p3 0.8510 0.8510 0.8510);fill-opacity:1;"/>
<circle cx="506.407" cy="1002.9" r="21" transform="rotate(180 506.407 1002.9)" fill="#A0E0EB" style="fill:#A0E0EB;fill:color(display-p3 0.6268 0.8787 0.9232);fill-opacity:1;"/>
<path d="M490.001 1002.9C490.001 993.84 497.347 986.495 506.407 986.495C515.468 986.495 522.814 993.84 522.814 1002.9C522.814 1011.96 515.468 1019.31 506.407 1019.31C497.347 1019.31 490.001 1011.96 490.001 1002.9Z" fill="black" style="fill:black;fill-opacity:1;"/>
<circle cx="506.407" cy="1002.9" r="8.53125" transform="rotate(180 506.407 1002.9)" fill="#D9D9D9" style="fill:#D9D9D9;fill:color(display-p3 0.8510 0.8510 0.8510);fill-opacity:1;"/>
</svg>
