<svg width="1922" height="1116" viewBox="0 0 1922 1116" fill="none" xmlns="http://www.w3.org/2000/svg">
<rect width="1922" height="1116" fill="#1E1E1E" style="fill:#1E1E1E;fill:color(display-p3 0.1176 0.1176 0.1176);fill-opacity:1;"/>
<rect x="1.01096" width="1920" height="1080" fill="black" style="fill:black;fill-opacity:1;"/>
<rect x="1336.01" y="307.341" width="260.355" height="22.1203" transform="rotate(-64.1689 1336.01 307.341)" fill="#B15858" style="fill:#B15858;fill:color(display-p3 0.6946 0.3458 0.3458);fill-opacity:1;"/>
<rect x="1695.27" y="510.887" width="260.355" height="22.1203" transform="rotate(-118.757 1695.27 510.887)" fill="#919191" style="fill:#919191;fill:color(display-p3 0.5701 0.5701 0.5701);fill-opacity:1;"/>
<rect x="1701.2" y="512.534" width="407.209" height="23.8356" transform="rotate(-153.741 1701.2 512.534)" fill="#919191" style="fill:#919191;fill:color(display-p3 0.5701 0.5701 0.5701);fill-opacity:1;"/>
<rect x="1586.23" y="274.996" width="260.355" height="22.1203" transform="rotate(167.349 1586.23 274.996)" fill="#919191" style="fill:#919191;fill:color(display-p3 0.5701 0.5701 0.5701);fill-opacity:1;"/>
<path d="M1869.51 946.5L1848.01 744.5L1547.01 772.5L1803.01 689.5L1884.01 526M1869.51 946.5L1350.01 926.273M1869.51 946.5L1660.51 1108M1164.01 1038.5L1140.51 875.5L1343.01 926L1350.01 926.273M1164.01 1038.5L1244.01 1100.5M1164.01 1038.5L1350.01 926.273" stroke="#919191" style="stroke:#919191;stroke:color(display-p3 0.5701 0.5701 0.5701);stroke-opacity:1;" stroke-width="18"/>
<path d="M1549.01 772.5L1348.01 927M1888.01 525L1851.01 740.5" stroke="#B15858" style="stroke:#B15858;stroke:color(display-p3 0.6946 0.3458 0.3458);stroke-opacity:1;" stroke-width="18"/>
<rect x="1839.89" y="218.583" width="260.355" height="22.1203" transform="rotate(167.349 1839.89 218.583)" fill="#919191" style="fill:#919191;fill:color(display-p3 0.5701 0.5701 0.5701);fill-opacity:1;"/>
<path d="M1920.51 24L1715.95 65.028L1711.01 43.0207L1920.51 2.5L1920.51 24Z" fill="#919191" style="fill:#919191;fill:color(display-p3 0.5701 0.5701 0.5701);fill-opacity:1;"/>
<path d="M1921.51 149L1839.66 223.028L1825.01 206.457L1921.51 126.5L1921.51 149Z" fill="#919191" style="fill:#919191;fill:color(display-p3 0.5701 0.5701 0.5701);fill-opacity:1;"/>
<path d="M1729.68 63.2365L1593.2 264.602L1577.01 249.527L1713.49 48.161L1729.68 63.2365Z" fill="#919191" style="fill:#919191;fill:color(display-p3 0.5701 0.5701 0.5701);fill-opacity:1;"/>
<path d="M1729.68 63.2365L1469.94 81.0684L1468.42 59L1728.17 41.1681L1729.68 63.2365Z" fill="#919191" style="fill:#919191;fill:color(display-p3 0.5701 0.5701 0.5701);fill-opacity:1;"/>
<circle cx="1340.01" cy="320" r="21" fill="#A0E0EB" style="fill:#A0E0EB;fill:color(display-p3 0.6268 0.8787 0.9232);fill-opacity:1;"/>
<path d="M1356.42 320C1356.42 329.061 1349.07 336.406 1340.01 336.406C1330.95 336.406 1323.6 329.061 1323.6 320C1323.6 310.939 1330.95 303.594 1340.01 303.594C1349.07 303.594 1356.42 310.939 1356.42 320Z" fill="black" style="fill:black;fill-opacity:1;"/>
<circle cx="1340.01" cy="320" r="8.53125" fill="#D9D9D9" style="fill:#D9D9D9;fill:color(display-p3 0.8510 0.8510 0.8510);fill-opacity:1;"/>
<circle cx="1701.01" cy="495" r="21" fill="#A0E0EB" style="fill:#A0E0EB;fill:color(display-p3 0.6268 0.8787 0.9232);fill-opacity:1;"/>
<path d="M1717.42 495C1717.42 504.061 1710.07 511.406 1701.01 511.406C1691.95 511.406 1684.6 504.061 1684.6 495C1684.6 485.939 1691.95 478.594 1701.01 478.594C1710.07 478.594 1717.42 485.939 1717.42 495Z" fill="black" style="fill:black;fill-opacity:1;"/>
<circle cx="1701.01" cy="495" r="8.53125" fill="#D9D9D9" style="fill:#D9D9D9;fill:color(display-p3 0.8510 0.8510 0.8510);fill-opacity:1;"/>
<circle cx="1581.01" cy="267" r="21" fill="#A0E0EB" style="fill:#A0E0EB;fill:color(display-p3 0.6268 0.8787 0.9232);fill-opacity:1;"/>
<path d="M1597.42 267C1597.42 276.061 1590.07 283.406 1581.01 283.406C1571.95 283.406 1564.6 276.061 1564.6 267C1564.6 257.939 1571.95 250.594 1581.01 250.594C1590.07 250.594 1597.42 257.939 1597.42 267Z" fill="black" style="fill:black;fill-opacity:1;"/>
<circle cx="1581.01" cy="267" r="8.53125" fill="#D9D9D9" style="fill:#D9D9D9;fill:color(display-p3 0.8510 0.8510 0.8510);fill-opacity:1;"/>
<circle cx="1835.01" cy="208" r="21" fill="#A0E0EB" style="fill:#A0E0EB;fill:color(display-p3 0.6268 0.8787 0.9232);fill-opacity:1;"/>
<path d="M1851.42 208C1851.42 217.061 1844.07 224.406 1835.01 224.406C1825.95 224.406 1818.6 217.061 1818.6 208C1818.6 198.939 1825.95 191.594 1835.01 191.594C1844.07 191.594 1851.42 198.939 1851.42 208Z" fill="black" style="fill:black;fill-opacity:1;"/>
<circle cx="1835.01" cy="208" r="8.53125" fill="#D9D9D9" style="fill:#D9D9D9;fill:color(display-p3 0.8510 0.8510 0.8510);fill-opacity:1;"/>
<circle cx="1716.01" cy="55" r="21" fill="#A0E0EB" style="fill:#A0E0EB;fill:color(display-p3 0.6268 0.8787 0.9232);fill-opacity:1;"/>
<path d="M1732.42 55C1732.42 64.0609 1725.07 71.4062 1716.01 71.4062C1706.95 71.4062 1699.6 64.0609 1699.6 55C1699.6 45.9391 1706.95 38.5938 1716.01 38.5938C1725.07 38.5938 1732.42 45.9391 1732.42 55Z" fill="black" style="fill:black;fill-opacity:1;"/>
<circle cx="1716.01" cy="55" r="8.53125" fill="#D9D9D9" style="fill:#D9D9D9;fill:color(display-p3 0.8510 0.8510 0.8510);fill-opacity:1;"/>
<circle cx="1460.01" cy="74" r="21" fill="#A0E0EB" style="fill:#A0E0EB;fill:color(display-p3 0.6268 0.8787 0.9232);fill-opacity:1;"/>
<path d="M1476.42 74C1476.42 83.0609 1469.07 90.4062 1460.01 90.4062C1450.95 90.4062 1443.6 83.0609 1443.6 74C1443.6 64.9391 1450.95 57.5938 1460.01 57.5938C1469.07 57.5938 1476.42 64.9391 1476.42 74Z" fill="black" style="fill:black;fill-opacity:1;"/>
<circle cx="1460.01" cy="74" r="8.53125" fill="#D9D9D9" style="fill:#D9D9D9;fill:color(display-p3 0.8510 0.8510 0.8510);fill-opacity:1;"/>
<rect x="585.5" y="763.659" width="260.355" height="22.1203" transform="rotate(115.831 585.5 763.659)" fill="#B15858" style="fill:#B15858;fill:color(display-p3 0.6946 0.3458 0.3458);fill-opacity:1;"/>
<rect x="472.913" y="135" width="193" height="21" transform="rotate(84.4688 472.913 135)" fill="#B15858" style="fill:#B15858;fill:color(display-p3 0.6946 0.3458 0.3458);fill-opacity:1;"/>
<rect x="473.126" y="305.987" width="193" height="21" transform="rotate(-3.36324 473.126 305.987)" fill="#B15858" style="fill:#B15858;fill:color(display-p3 0.6946 0.3458 0.3458);fill-opacity:1;"/>
<rect x="460.011" y="138.323" width="193" height="21" transform="rotate(-3.36324 460.011 138.323)" fill="#B15858" style="fill:#B15858;fill:color(display-p3 0.6946 0.3458 0.3458);fill-opacity:1;"/>
<rect x="394.512" y="551.665" width="260.355" height="22.1203" transform="rotate(99.8328 394.512 551.665)" fill="#919191" style="fill:#919191;fill:color(display-p3 0.5701 0.5701 0.5701);fill-opacity:1;"/>
<rect x="395.304" y="555.4" width="260.355" height="22.1203" transform="rotate(43.2858 395.304 555.4)" fill="#919191" style="fill:#919191;fill:color(display-p3 0.5701 0.5701 0.5701);fill-opacity:1;"/>
<rect x="467.177" y="127" width="260.355" height="22.1203" transform="rotate(43.2858 467.177 127)" fill="#919191" style="fill:#919191;fill:color(display-p3 0.5701 0.5701 0.5701);fill-opacity:1;"/>
<rect x="653.814" y="119.956" width="200.416" height="22.8457" transform="rotate(86.511 653.814 119.956)" fill="#919191" style="fill:#919191;fill:color(display-p3 0.5701 0.5701 0.5701);fill-opacity:1;"/>
<rect x="335.282" y="796.004" width="260.355" height="22.1203" transform="rotate(-12.651 335.282 796.004)" fill="#919191" style="fill:#919191;fill:color(display-p3 0.5701 0.5701 0.5701);fill-opacity:1;"/>
<rect x="81.6216" y="852.417" width="260.355" height="22.1203" transform="rotate(-12.651 81.6216 852.417)" fill="#919191" style="fill:#919191;fill:color(display-p3 0.5701 0.5701 0.5701);fill-opacity:1;"/>
<path d="M1.00003 1047L205.56 1005.97L210.5 1027.98L1.00004 1068.5L1.00003 1047Z" fill="#919191" style="fill:#919191;fill:color(display-p3 0.5701 0.5701 0.5701);fill-opacity:1;"/>
<path d="M-6.94346e-06 922L81.8476 847.972L96.4999 864.543L9.4606e-05 944.5L-6.94346e-06 922Z" fill="#919191" style="fill:#919191;fill:color(display-p3 0.5701 0.5701 0.5701);fill-opacity:1;"/>
<path d="M191.829 1007.76L328.312 806.398L344.5 821.473L208.016 1022.84L191.829 1007.76Z" fill="#919191" style="fill:#919191;fill:color(display-p3 0.5701 0.5701 0.5701);fill-opacity:1;"/>
<path d="M191.829 1007.76L451.572 989.932L453.087 1012L193.344 1029.83L191.829 1007.76Z" fill="#919191" style="fill:#919191;fill:color(display-p3 0.5701 0.5701 0.5701);fill-opacity:1;"/>
<circle cx="581.5" cy="751" r="21" transform="rotate(-180 581.5 751)" fill="#A0E0EB" style="fill:#A0E0EB;fill:color(display-p3 0.6268 0.8787 0.9232);fill-opacity:1;"/>
<path d="M565.094 751C565.094 741.939 572.439 734.594 581.5 734.594C590.561 734.594 597.906 741.939 597.906 751C597.906 760.061 590.561 767.406 581.5 767.406C572.439 767.406 565.094 760.061 565.094 751Z" fill="black" style="fill:black;fill-opacity:1;"/>
<circle cx="581.5" cy="751" r="8.53125" transform="rotate(-180 581.5 751)" fill="#D9D9D9" style="fill:#D9D9D9;fill:color(display-p3 0.8510 0.8510 0.8510);fill-opacity:1;"/>
<circle cx="382.5" cy="561" r="21" transform="rotate(-180 382.5 561)" fill="#A0E0EB" style="fill:#A0E0EB;fill:color(display-p3 0.6268 0.8787 0.9232);fill-opacity:1;"/>
<path d="M366.094 561C366.094 551.939 373.439 544.594 382.5 544.594C391.561 544.594 398.906 551.939 398.906 561C398.906 570.061 391.561 577.406 382.5 577.406C373.439 577.406 366.094 570.061 366.094 561Z" fill="black" style="fill:black;fill-opacity:1;"/>
<circle cx="382.5" cy="561" r="8.53125" transform="rotate(-180 382.5 561)" fill="#D9D9D9" style="fill:#D9D9D9;fill:color(display-p3 0.8510 0.8510 0.8510);fill-opacity:1;"/>
<circle cx="645.011" cy="136" r="21" transform="rotate(-180 645.011 136)" fill="#A0E0EB" style="fill:#A0E0EB;fill:color(display-p3 0.6268 0.8787 0.9232);fill-opacity:1;"/>
<path d="M628.605 136C628.605 126.939 635.95 119.594 645.011 119.594C654.072 119.594 661.417 126.939 661.417 136C661.417 145.061 654.072 152.406 645.011 152.406C635.95 152.406 628.605 145.061 628.605 136Z" fill="black" style="fill:black;fill-opacity:1;"/>
<circle cx="645.011" cy="136" r="8.53125" transform="rotate(-180 645.011 136)" fill="#D9D9D9" style="fill:#D9D9D9;fill:color(display-p3 0.8510 0.8510 0.8510);fill-opacity:1;"/>
<circle cx="650.011" cy="308" r="21" transform="rotate(-180 650.011 308)" fill="#A0E0EB" style="fill:#A0E0EB;fill:color(display-p3 0.6268 0.8787 0.9232);fill-opacity:1;"/>
<path d="M633.605 308C633.605 298.939 640.95 291.594 650.011 291.594C659.072 291.594 666.417 298.939 666.417 308C666.417 317.061 659.072 324.406 650.011 324.406C640.95 324.406 633.605 317.061 633.605 308Z" fill="black" style="fill:black;fill-opacity:1;"/>
<circle cx="650.011" cy="308" r="8.53125" transform="rotate(-180 650.011 308)" fill="#D9D9D9" style="fill:#D9D9D9;fill:color(display-p3 0.8510 0.8510 0.8510);fill-opacity:1;"/>
<circle cx="1348.01" cy="927" r="21" transform="rotate(-180 1348.01 927)" fill="#A0E0EB" style="fill:#A0E0EB;fill:color(display-p3 0.6268 0.8787 0.9232);fill-opacity:1;"/>
<path d="M1331.6 927C1331.6 917.939 1338.95 910.594 1348.01 910.594C1357.07 910.594 1364.42 917.939 1364.42 927C1364.42 936.061 1357.07 943.406 1348.01 943.406C1338.95 943.406 1331.6 936.061 1331.6 927Z" fill="black" style="fill:black;fill-opacity:1;"/>
<circle cx="1348.01" cy="927" r="8.53125" transform="rotate(-180 1348.01 927)" fill="#D9D9D9" style="fill:#D9D9D9;fill:color(display-p3 0.8510 0.8510 0.8510);fill-opacity:1;"/>
<circle cx="1141.01" cy="873" r="21" transform="rotate(-180 1141.01 873)" fill="#A0E0EB" style="fill:#A0E0EB;fill:color(display-p3 0.6268 0.8787 0.9232);fill-opacity:1;"/>
<path d="M1124.6 873C1124.6 863.939 1131.95 856.594 1141.01 856.594C1150.07 856.594 1157.42 863.939 1157.42 873C1157.42 882.061 1150.07 889.406 1141.01 889.406C1131.95 889.406 1124.6 882.061 1124.6 873Z" fill="black" style="fill:black;fill-opacity:1;"/>
<circle cx="1141.01" cy="873" r="8.53125" transform="rotate(-180 1141.01 873)" fill="#D9D9D9" style="fill:#D9D9D9;fill:color(display-p3 0.8510 0.8510 0.8510);fill-opacity:1;"/>
<circle cx="1171.01" cy="1034" r="21" transform="rotate(-180 1171.01 1034)" fill="#A0E0EB" style="fill:#A0E0EB;fill:color(display-p3 0.6268 0.8787 0.9232);fill-opacity:1;"/>
<path d="M1154.6 1034C1154.6 1024.94 1161.95 1017.59 1171.01 1017.59C1180.07 1017.59 1187.42 1024.94 1187.42 1034C1187.42 1043.06 1180.07 1050.41 1171.01 1050.41C1161.95 1050.41 1154.6 1043.06 1154.6 1034Z" fill="black" style="fill:black;fill-opacity:1;"/>
<circle cx="1171.01" cy="1034" r="8.53125" transform="rotate(-180 1171.01 1034)" fill="#D9D9D9" style="fill:#D9D9D9;fill:color(display-p3 0.8510 0.8510 0.8510);fill-opacity:1;"/>
<circle cx="1551.01" cy="773" r="21" transform="rotate(-180 1551.01 773)" fill="#A0E0EB" style="fill:#A0E0EB;fill:color(display-p3 0.6268 0.8787 0.9232);fill-opacity:1;"/>
<path d="M1534.6 773C1534.6 763.939 1541.95 756.594 1551.01 756.594C1560.07 756.594 1567.42 763.939 1567.42 773C1567.42 782.061 1560.07 789.406 1551.01 789.406C1541.95 789.406 1534.6 782.061 1534.6 773Z" fill="black" style="fill:black;fill-opacity:1;"/>
<circle cx="1551.01" cy="773" r="8.53125" transform="rotate(-180 1551.01 773)" fill="#D9D9D9" style="fill:#D9D9D9;fill:color(display-p3 0.8510 0.8510 0.8510);fill-opacity:1;"/>
<circle cx="1869.01" cy="943" r="21" transform="rotate(-180 1869.01 943)" fill="#A0E0EB" style="fill:#A0E0EB;fill:color(display-p3 0.6268 0.8787 0.9232);fill-opacity:1;"/>
<path d="M1852.6 943C1852.6 933.939 1859.95 926.594 1869.01 926.594C1878.07 926.594 1885.42 933.939 1885.42 943C1885.42 952.061 1878.07 959.406 1869.01 959.406C1859.95 959.406 1852.6 952.061 1852.6 943Z" fill="black" style="fill:black;fill-opacity:1;"/>
<circle cx="1869.01" cy="943" r="8.53125" transform="rotate(-180 1869.01 943)" fill="#D9D9D9" style="fill:#D9D9D9;fill:color(display-p3 0.8510 0.8510 0.8510);fill-opacity:1;"/>
<circle cx="1848.01" cy="743" r="21" transform="rotate(-180 1848.01 743)" fill="#A0E0EB" style="fill:#A0E0EB;fill:color(display-p3 0.6268 0.8787 0.9232);fill-opacity:1;"/>
<path d="M1831.6 743C1831.6 733.939 1838.95 726.594 1848.01 726.594C1857.07 726.594 1864.42 733.939 1864.42 743C1864.42 752.061 1857.07 759.406 1848.01 759.406C1838.95 759.406 1831.6 752.061 1831.6 743Z" fill="black" style="fill:black;fill-opacity:1;"/>
<circle cx="1848.01" cy="743" r="8.53125" transform="rotate(-180 1848.01 743)" fill="#D9D9D9" style="fill:#D9D9D9;fill:color(display-p3 0.8510 0.8510 0.8510);fill-opacity:1;"/>
<circle cx="1885.01" cy="525" r="21" transform="rotate(-180 1885.01 525)" fill="#A0E0EB" style="fill:#A0E0EB;fill:color(display-p3 0.6268 0.8787 0.9232);fill-opacity:1;"/>
<path d="M1868.6 525C1868.6 515.939 1875.95 508.594 1885.01 508.594C1894.07 508.594 1901.42 515.939 1901.42 525C1901.42 534.061 1894.07 541.406 1885.01 541.406C1875.95 541.406 1868.6 534.061 1868.6 525Z" fill="black" style="fill:black;fill-opacity:1;"/>
<circle cx="1885.01" cy="525" r="8.53125" transform="rotate(-180 1885.01 525)" fill="#D9D9D9" style="fill:#D9D9D9;fill:color(display-p3 0.8510 0.8510 0.8510);fill-opacity:1;"/>
<circle cx="482.011" cy="320" r="21" transform="rotate(-180 482.011 320)" fill="#A0E0EB" style="fill:#A0E0EB;fill:color(display-p3 0.6268 0.8787 0.9232);fill-opacity:1;"/>
<path d="M465.605 320C465.605 310.939 472.95 303.594 482.011 303.594C491.072 303.594 498.417 310.939 498.417 320C498.417 329.061 491.072 336.406 482.011 336.406C472.95 336.406 465.605 329.061 465.605 320Z" fill="black" style="fill:black;fill-opacity:1;"/>
<circle cx="482.011" cy="320" r="8.53125" transform="rotate(-180 482.011 320)" fill="#D9D9D9" style="fill:#D9D9D9;fill:color(display-p3 0.8510 0.8510 0.8510);fill-opacity:1;"/>
<circle cx="465.011" cy="148" r="21" transform="rotate(-180 465.011 148)" fill="#A0E0EB" style="fill:#A0E0EB;fill:color(display-p3 0.6268 0.8787 0.9232);fill-opacity:1;"/>
<path d="M448.605 148C448.605 138.939 455.95 131.594 465.011 131.594C474.072 131.594 481.417 138.939 481.417 148C481.417 157.061 474.072 164.406 465.011 164.406C455.95 164.406 448.605 157.061 448.605 148Z" fill="black" style="fill:black;fill-opacity:1;"/>
<circle cx="465.011" cy="148" r="8.53125" transform="rotate(-180 465.011 148)" fill="#D9D9D9" style="fill:#D9D9D9;fill:color(display-p3 0.8510 0.8510 0.8510);fill-opacity:1;"/>
<circle cx="340.5" cy="804" r="21" transform="rotate(-180 340.5 804)" fill="#A0E0EB" style="fill:#A0E0EB;fill:color(display-p3 0.6268 0.8787 0.9232);fill-opacity:1;"/>
<path d="M324.094 804C324.094 794.939 331.439 787.594 340.5 787.594C349.561 787.594 356.906 794.939 356.906 804C356.906 813.061 349.561 820.406 340.5 820.406C331.439 820.406 324.094 813.061 324.094 804Z" fill="black" style="fill:black;fill-opacity:1;"/>
<circle cx="340.5" cy="804" r="8.53125" transform="rotate(-180 340.5 804)" fill="#D9D9D9" style="fill:#D9D9D9;fill:color(display-p3 0.8510 0.8510 0.8510);fill-opacity:1;"/>
<circle cx="86.5001" cy="863" r="21" transform="rotate(-180 86.5001 863)" fill="#A0E0EB" style="fill:#A0E0EB;fill:color(display-p3 0.6268 0.8787 0.9232);fill-opacity:1;"/>
<path d="M70.0938 863C70.0938 853.939 77.4392 846.594 86.5001 846.594C95.561 846.594 102.906 853.939 102.906 863C102.906 872.061 95.561 879.406 86.5001 879.406C77.4392 879.406 70.0938 872.061 70.0938 863Z" fill="black" style="fill:black;fill-opacity:1;"/>
<circle cx="86.5001" cy="863" r="8.53125" transform="rotate(-180 86.5001 863)" fill="#D9D9D9" style="fill:#D9D9D9;fill:color(display-p3 0.8510 0.8510 0.8510);fill-opacity:1;"/>
<circle cx="205.5" cy="1016" r="21" transform="rotate(-180 205.5 1016)" fill="#A0E0EB" style="fill:#A0E0EB;fill:color(display-p3 0.6268 0.8787 0.9232);fill-opacity:1;"/>
<path d="M189.094 1016C189.094 1006.94 196.439 999.594 205.5 999.594C214.561 999.594 221.906 1006.94 221.906 1016C221.906 1025.06 214.561 1032.41 205.5 1032.41C196.439 1032.41 189.094 1025.06 189.094 1016Z" fill="black" style="fill:black;fill-opacity:1;"/>
<circle cx="205.5" cy="1016" r="8.53125" transform="rotate(-180 205.5 1016)" fill="#D9D9D9" style="fill:#D9D9D9;fill:color(display-p3 0.8510 0.8510 0.8510);fill-opacity:1;"/>
<circle cx="461.5" cy="997" r="21" transform="rotate(-180 461.5 997)" fill="#A0E0EB" style="fill:#A0E0EB;fill:color(display-p3 0.6268 0.8787 0.9232);fill-opacity:1;"/>
<path d="M445.094 997C445.094 987.939 452.439 980.594 461.5 980.594C470.561 980.594 477.906 987.939 477.906 997C477.906 1006.06 470.561 1013.41 461.5 1013.41C452.439 1013.41 445.094 1006.06 445.094 997Z" fill="black" style="fill:black;fill-opacity:1;"/>
<circle cx="461.5" cy="997" r="8.53125" transform="rotate(-180 461.5 997)" fill="#D9D9D9" style="fill:#D9D9D9;fill:color(display-p3 0.8510 0.8510 0.8510);fill-opacity:1;"/>
<rect x="711.011" y="606" width="242" height="94" rx="10" fill="#8194E2" style="fill:#8194E2;fill:color(display-p3 0.5059 0.5818 0.8856);fill-opacity:1;"/>
<rect x="969.011" y="606" width="242" height="94" rx="10" fill="#D49771" style="fill:#D49771;fill:color(display-p3 0.8303 0.5909 0.4421);fill-opacity:1;"/>
<path d="M1036.35 635.714H1039.78V639.143H1036.35V635.714ZM1039.78 635.714H1043.21V639.143H1039.78V635.714ZM1043.21 635.714H1046.64V639.143H1043.21V635.714ZM1046.64 635.714H1050.07V639.143H1046.64V635.714ZM1050.07 635.714H1053.5V639.143H1050.07V635.714ZM1053.5 635.714H1056.93V639.143H1053.5V635.714ZM1053.5 639.143H1056.93V642.571H1053.5V639.143ZM1050.07 639.143H1053.5V642.571H1050.07V639.143ZM1046.64 639.143H1050.07V642.571H1046.64V639.143ZM1043.21 639.143H1046.64V642.571H1043.21V639.143ZM1039.78 639.143H1043.21V642.571H1039.78V639.143ZM1036.35 639.143H1039.78V642.571H1036.35V639.143ZM1056.93 639.143H1060.35V642.571H1056.93V639.143ZM1053.5 642.571H1056.93V646H1053.5V642.571ZM1056.93 642.571H1060.35V646H1056.93V642.571ZM1056.93 646H1060.35V649.429H1056.93V646ZM1056.93 649.429H1060.35V652.857H1056.93V649.429ZM1053.5 649.429H1056.93V652.857H1053.5V649.429ZM1053.5 646H1056.93V649.429H1053.5V646ZM1053.5 652.857H1056.93V656.286H1053.5V652.857ZM1053.5 656.286H1056.93V659.714H1053.5V656.286ZM1050.07 656.286H1053.5V659.714H1050.07V656.286ZM1050.07 652.857H1053.5V656.286H1050.07V652.857ZM1046.64 652.857H1050.07V656.286H1046.64V652.857ZM1046.64 656.286H1050.07V659.714H1046.64V656.286ZM1043.21 656.286H1046.64V659.714H1043.21V656.286ZM1043.21 652.857H1046.64V656.286H1043.21V652.857ZM1039.78 652.857H1043.21V656.286H1039.78V652.857ZM1036.35 652.857H1039.78V656.286H1036.35V652.857ZM1036.35 656.286H1039.78V659.714H1036.35V656.286ZM1039.78 656.286H1043.21V659.714H1039.78V656.286ZM1036.35 642.571H1039.78V646H1036.35V642.571ZM1039.78 642.571H1043.21V646H1039.78V642.571ZM1039.78 646H1043.21V649.429H1039.78V646ZM1039.78 649.429H1043.21V652.857H1039.78V649.429ZM1036.35 646H1039.78V649.429H1036.35V646ZM1036.35 649.429H1039.78V652.857H1036.35V649.429ZM1036.35 659.714H1039.78V663.143H1036.35V659.714ZM1039.78 659.714H1043.21V663.143H1039.78V659.714ZM1039.78 663.143H1043.21V666.571H1039.78V663.143ZM1039.78 666.571H1043.21V670H1039.78V666.571ZM1036.35 666.571H1039.78V670H1036.35V666.571ZM1036.35 663.143H1039.78V666.571H1036.35V663.143ZM1056.93 652.857H1060.35V656.286H1056.93V652.857ZM1063.79 635.714H1067.22V639.143H1063.79V635.714ZM1067.22 635.714H1070.65V639.143H1067.22V635.714ZM1067.22 639.143H1070.65V642.571H1067.22V639.143ZM1067.22 642.571H1070.65V646H1067.22V642.571ZM1067.22 646H1070.65V649.429H1067.22V646ZM1063.79 646H1067.22V649.429H1063.79V646ZM1063.79 642.571H1067.22V646H1063.79V642.571ZM1063.79 639.143H1067.22V642.571H1063.79V639.143ZM1063.79 649.429H1067.22V652.857H1063.79V649.429ZM1063.79 652.857H1067.22V656.286H1063.79V652.857ZM1063.79 656.286H1067.22V659.714H1063.79V656.286ZM1067.22 652.857H1070.65V656.286H1067.22V652.857ZM1067.22 649.429H1070.65V652.857H1067.22V649.429ZM1067.22 656.286H1070.65V659.714H1067.22V656.286ZM1067.22 659.714H1070.65V663.143H1067.22V659.714ZM1063.79 663.143H1067.22V666.571H1063.79V663.143ZM1063.79 659.714H1067.22V663.143H1063.79V659.714ZM1063.79 666.571H1067.22V670H1063.79V666.571ZM1067.22 666.571H1070.65V670H1067.22V666.571ZM1067.22 663.143H1070.65V666.571H1067.22V663.143ZM1070.65 666.571H1074.08V670H1070.65V666.571ZM1074.08 666.571H1077.51V670H1074.08V666.571ZM1077.51 666.571H1080.94V670H1077.51V666.571ZM1077.51 663.143H1080.94V666.571H1077.51V663.143ZM1074.08 663.143H1077.51V666.571H1074.08V663.143ZM1070.65 663.143H1074.08V666.571H1070.65V663.143ZM1091.21 639.143H1094.64V642.571H1091.21V639.143ZM1094.64 639.143H1098.07V642.571H1094.64V639.143ZM1094.64 635.714H1098.07V639.143H1094.64V635.714ZM1098.07 639.143H1101.5V642.571H1098.07V639.143ZM1098.07 642.571H1101.5V646H1098.07V642.571ZM1101.5 642.571H1104.93V646H1101.5V642.571ZM1094.64 642.571H1098.07V646H1094.64V642.571ZM1091.21 642.571H1094.64V646H1091.21V642.571ZM1087.78 642.571H1091.21V646H1087.78V642.571ZM1087.78 646H1091.21V649.429H1087.78V646ZM1084.35 646H1087.78V649.429H1084.35V646ZM1091.21 646H1094.64V649.429H1091.21V646ZM1087.78 649.429H1091.21V652.857H1087.78V649.429ZM1087.78 652.857H1091.21V656.286H1087.78V652.857ZM1087.78 656.286H1091.21V659.714H1087.78V656.286ZM1091.21 656.286H1094.64V659.714H1091.21V656.286ZM1094.64 656.286H1098.07V659.714H1094.64V656.286ZM1098.07 656.286H1101.5V659.714H1098.07V656.286ZM1101.5 656.286H1104.93V659.714H1101.5V656.286ZM1104.93 656.286H1108.35V659.714H1104.93V656.286ZM1104.93 652.857H1108.35V656.286H1104.93V652.857ZM1104.93 649.429H1108.35V652.857H1104.93V649.429ZM1104.93 646H1108.35V649.429H1104.93V646ZM1101.5 646H1104.93V649.429H1101.5V646ZM1098.07 646H1101.5V649.429H1098.07V646ZM1101.5 649.429H1104.93V652.857H1101.5V649.429ZM1101.5 652.857H1104.93V656.286H1101.5V652.857ZM1101.5 659.714H1104.93V663.143H1101.5V659.714ZM1104.93 659.714H1108.35V663.143H1104.93V659.714ZM1104.93 663.143H1108.35V666.571H1104.93V663.143ZM1104.93 666.571H1108.35V670H1104.93V666.571ZM1101.5 666.571H1104.93V670H1101.5V666.571ZM1101.5 663.143H1104.93V666.571H1101.5V663.143ZM1098.07 659.714H1101.5V663.143H1098.07V659.714ZM1094.64 659.714H1098.07V663.143H1094.64V659.714ZM1091.21 659.714H1094.64V663.143H1091.21V659.714ZM1087.78 659.714H1091.21V663.143H1087.78V659.714ZM1087.78 663.143H1091.21V666.571H1087.78V663.143ZM1087.78 666.571H1091.21V670H1087.78V666.571ZM1084.35 666.571H1087.78V670H1084.35V666.571ZM1084.35 663.143H1087.78V666.571H1084.35V663.143ZM1084.35 659.714H1087.78V663.143H1084.35V659.714ZM1084.35 656.286H1087.78V659.714H1084.35V656.286ZM1084.35 652.857H1087.78V656.286H1084.35V652.857ZM1084.35 649.429H1087.78V652.857H1084.35V649.429ZM1111.79 635.714H1115.22V639.143H1111.79V635.714ZM1115.22 635.714H1118.65V639.143H1115.22V635.714ZM1115.22 639.143H1118.65V642.571H1115.22V639.143ZM1115.22 642.571H1118.65V646H1115.22V642.571ZM1111.79 642.571H1115.22V646H1111.79V642.571ZM1111.79 639.143H1115.22V642.571H1111.79V639.143ZM1111.79 646H1115.22V649.429H1111.79V646ZM1111.79 649.429H1115.22V652.857H1111.79V649.429ZM1115.22 649.429H1118.65V652.857H1115.22V649.429ZM1115.22 646H1118.65V649.429H1115.22V646ZM1115.22 652.857H1118.65V656.286H1115.22V652.857ZM1118.65 652.857H1122.08V656.286H1118.65V652.857ZM1118.65 649.429H1122.08V652.857H1118.65V649.429ZM1118.65 656.286H1122.08V659.714H1118.65V656.286ZM1122.08 656.286H1125.51V659.714H1122.08V656.286ZM1122.08 652.857H1125.51V656.286H1122.08V652.857ZM1125.51 652.857H1128.94V656.286H1125.51V652.857ZM1125.51 656.286H1128.94V659.714H1125.51V656.286ZM1128.94 656.286H1132.36V659.714H1128.94V656.286ZM1128.94 652.857H1132.36V656.286H1128.94V652.857ZM1128.94 649.429H1132.36V652.857H1128.94V649.429ZM1132.36 649.429H1135.79V652.857H1132.36V649.429ZM1132.36 652.857H1135.79V656.286H1132.36V652.857ZM1132.36 646H1135.79V649.429H1132.36V646ZM1132.36 642.571H1135.79V646H1132.36V642.571ZM1132.36 639.143H1135.79V642.571H1132.36V639.143ZM1132.36 635.714H1135.79V639.143H1132.36V635.714ZM1135.79 635.714H1139.22V639.143H1135.79V635.714ZM1135.79 639.143H1139.22V642.571H1135.79V639.143ZM1135.79 642.571H1139.22V646H1135.79V642.571ZM1135.79 646H1139.22V649.429H1135.79V646ZM1135.79 649.429H1139.22V652.857H1135.79V649.429ZM1122.08 659.714H1125.51V663.143H1122.08V659.714ZM1122.08 663.143H1125.51V666.571H1122.08V663.143ZM1122.08 666.571H1125.51V670H1122.08V666.571ZM1125.51 666.571H1128.94V670H1125.51V666.571ZM1125.51 663.143H1128.94V666.571H1125.51V663.143ZM1125.51 659.714H1128.94V663.143H1125.51V659.714Z" fill="white" style="fill:white;fill-opacity:1;"/>
<path d="M773.198 635.714H776.627V639.143H773.198V635.714ZM776.627 635.714H780.056V639.143H776.627V635.714ZM776.627 639.143H780.056V642.571H776.627V639.143ZM776.627 642.571H780.056V646H776.627V642.571ZM776.627 646H780.056V649.429H776.627V646ZM773.198 646H776.627V649.429H773.198V646ZM773.198 642.571H776.627V646H773.198V642.571ZM773.198 639.143H776.627V642.571H773.198V639.143ZM773.198 649.429H776.627V652.857H773.198V649.429ZM773.198 652.857H776.627V656.286H773.198V652.857ZM773.198 656.286H776.627V659.714H773.198V656.286ZM776.627 652.857H780.056V656.286H776.627V652.857ZM776.627 649.429H780.056V652.857H776.627V649.429ZM776.627 656.286H780.056V659.714H776.627V656.286ZM776.627 659.714H780.056V663.143H776.627V659.714ZM773.198 663.143H776.627V666.571H773.198V663.143ZM773.198 659.714H776.627V663.143H773.198V659.714ZM773.198 666.571H776.627V670H773.198V666.571ZM776.627 666.571H780.056V670H776.627V666.571ZM776.627 663.143H780.056V666.571H776.627V663.143ZM780.056 666.571H783.484V670H780.056V666.571ZM783.484 666.571H786.913V670H783.484V666.571ZM786.913 666.571H790.341V670H786.913V666.571ZM786.913 663.143H790.341V666.571H786.913V663.143ZM783.484 663.143H786.913V666.571H783.484V663.143ZM780.056 663.143H783.484V666.571H780.056V663.143ZM800.618 635.714H804.047V639.143H800.618V635.714ZM797.19 635.714H800.618V639.143H797.19V635.714ZM797.19 639.143H800.618V642.571H797.19V639.143ZM800.618 639.143H804.047V642.571H800.618V639.143ZM804.047 639.143H807.475V642.571H804.047V639.143ZM804.047 635.714H807.475V639.143H804.047V635.714ZM807.475 635.714H810.904V639.143H807.475V635.714ZM810.904 635.714H814.332V639.143H810.904V635.714ZM810.904 639.143H814.332V642.571H810.904V639.143ZM807.475 639.143H810.904V642.571H807.475V639.143ZM807.475 642.571H810.904V646H807.475V642.571ZM810.904 642.571H814.332V646H810.904V642.571ZM814.332 639.143H817.761V642.571H814.332V639.143ZM814.332 642.571H817.761V646H814.332V642.571ZM814.332 646H817.761V649.429H814.332V646ZM814.332 649.429H817.761V652.857H814.332V649.429ZM814.332 652.857H817.761V656.286H814.332V652.857ZM814.332 656.286H817.761V659.714H814.332V656.286ZM814.332 659.714H817.761V663.143H814.332V659.714ZM814.332 663.143H817.761V666.571H814.332V663.143ZM810.904 663.143H814.332V666.571H810.904V663.143ZM810.904 659.714H814.332V663.143H810.904V659.714ZM810.904 656.286H814.332V659.714H810.904V656.286ZM810.904 652.857H814.332V656.286H810.904V652.857ZM810.904 649.429H814.332V652.857H810.904V649.429ZM810.904 646H814.332V649.429H810.904V646ZM807.475 659.714H810.904V663.143H807.475V659.714ZM807.475 663.143H810.904V666.571H807.475V663.143ZM810.904 666.571H814.332V670H810.904V666.571ZM807.475 666.571H810.904V670H807.475V666.571ZM804.047 666.571H807.475V670H804.047V666.571ZM804.047 663.143H807.475V666.571H804.047V663.143ZM800.618 666.571H804.047V670H800.618V666.571ZM797.19 666.571H800.618V670H797.19V666.571ZM797.19 663.143H800.618V666.571H797.19V663.143ZM800.618 663.143H804.047V666.571H800.618V663.143ZM800.618 659.714H804.047V663.143H800.618V659.714ZM797.19 659.714H800.618V663.143H797.19V659.714ZM793.761 663.143H797.19V666.571H793.761V663.143ZM793.761 659.714H797.19V663.143H793.761V659.714ZM793.761 656.286H797.19V659.714H793.761V656.286ZM793.761 652.857H797.19V656.286H793.761V652.857ZM793.761 649.429H797.19V652.857H793.761V649.429ZM793.761 646H797.19V649.429H793.761V646ZM793.761 642.571H797.19V646H793.761V642.571ZM797.19 642.571H800.618V646H797.19V642.571ZM793.761 639.143H797.19V642.571H793.761V639.143ZM800.618 642.571H804.047V646H800.618V642.571ZM797.19 646H800.618V649.429H797.19V646ZM797.19 649.429H800.618V652.857H797.19V649.429ZM797.19 652.857H800.618V656.286H797.19V652.857ZM797.19 656.286H800.618V659.714H797.19V656.286ZM828.056 635.714H831.484V639.143H828.056V635.714ZM824.627 635.714H828.056V639.143H824.627V635.714ZM824.627 639.143H828.056V642.571H824.627V639.143ZM828.056 639.143H831.484V642.571H828.056V639.143ZM831.484 639.143H834.913V642.571H831.484V639.143ZM831.484 635.714H834.913V639.143H831.484V635.714ZM834.913 635.714H838.341V639.143H834.913V635.714ZM838.341 635.714H841.77V639.143H838.341V635.714ZM838.341 639.143H841.77V642.571H838.341V639.143ZM834.913 639.143H838.341V642.571H834.913V639.143ZM838.341 642.571H841.77V646H838.341V642.571ZM841.77 639.143H845.198V642.571H841.77V639.143ZM841.77 642.571H845.198V646H841.77V642.571ZM841.77 659.714H845.198V663.143H841.77V659.714ZM841.77 663.143H845.198V666.571H841.77V663.143ZM838.341 663.143H841.77V666.571H838.341V663.143ZM838.341 659.714H841.77V663.143H838.341V659.714ZM834.913 663.143H838.341V666.571H834.913V663.143ZM838.341 666.571H841.77V670H838.341V666.571ZM834.913 666.571H838.341V670H834.913V666.571ZM831.484 666.571H834.913V670H831.484V666.571ZM831.484 663.143H834.913V666.571H831.484V663.143ZM828.056 666.571H831.484V670H828.056V666.571ZM824.627 666.571H828.056V670H824.627V666.571ZM824.627 663.143H828.056V666.571H824.627V663.143ZM828.056 663.143H831.484V666.571H828.056V663.143ZM828.056 659.714H831.484V663.143H828.056V659.714ZM824.627 659.714H828.056V663.143H824.627V659.714ZM821.198 663.143H824.627V666.571H821.198V663.143ZM821.198 659.714H824.627V663.143H821.198V659.714ZM821.198 656.286H824.627V659.714H821.198V656.286ZM821.198 652.857H824.627V656.286H821.198V652.857ZM821.198 649.429H824.627V652.857H821.198V649.429ZM821.198 646H824.627V649.429H821.198V646ZM821.198 642.571H824.627V646H821.198V642.571ZM824.627 642.571H828.056V646H824.627V642.571ZM821.198 639.143H824.627V642.571H821.198V639.143ZM828.056 642.571H831.484V646H828.056V642.571ZM824.627 646H828.056V649.429H824.627V646ZM824.627 649.429H828.056V652.857H824.627V649.429ZM824.627 652.857H828.056V656.286H824.627V652.857ZM824.627 656.286H828.056V659.714H824.627V656.286ZM841.77 656.286H845.198V659.714H841.77V656.286ZM838.341 656.286H841.77V659.714H838.341V656.286ZM838.341 652.857H841.77V656.286H838.341V652.857ZM841.77 652.857H845.198V656.286H841.77V652.857ZM841.77 649.429H845.198V652.857H841.77V649.429ZM838.341 649.429H841.77V652.857H838.341V649.429ZM834.913 649.429H838.341V652.857H834.913V649.429ZM831.484 649.429H834.913V652.857H831.484V649.429ZM831.484 652.857H834.913V656.286H831.484V652.857ZM834.913 652.857H838.341V656.286H834.913V652.857ZM848.636 666.571H852.065V670H848.636V666.571ZM852.065 666.571H855.493V670H852.065V666.571ZM852.065 663.143H855.493V666.571H852.065V663.143ZM852.065 659.714H855.493V663.143H852.065V659.714ZM852.065 656.286H855.493V659.714H852.065V656.286ZM852.065 652.857H855.493V656.286H852.065V652.857ZM852.065 649.429H855.493V652.857H852.065V649.429ZM848.636 649.429H852.065V652.857H848.636V649.429ZM848.636 652.857H852.065V656.286H848.636V652.857ZM848.636 656.286H852.065V659.714H848.636V656.286ZM848.636 659.714H852.065V663.143H848.636V659.714ZM848.636 663.143H852.065V666.571H848.636V663.143ZM848.636 646H852.065V649.429H848.636V646ZM852.065 646H855.493V649.429H852.065V646ZM852.065 642.571H855.493V646H852.065V642.571ZM852.065 639.143H855.493V642.571H852.065V639.143ZM852.065 635.714H855.493V639.143H852.065V635.714ZM848.636 635.714H852.065V639.143H848.636V635.714ZM848.636 639.143H852.065V642.571H848.636V639.143ZM848.636 642.571H852.065V646H848.636V642.571ZM869.234 652.857H872.663V656.286H869.234V652.857ZM869.234 649.429H872.663V652.857H869.234V649.429ZM872.663 649.429H876.091V652.857H872.663V649.429ZM872.663 652.857H876.091V656.286H872.663V652.857ZM872.663 656.286H876.091V659.714H872.663V656.286ZM869.234 656.286H872.663V659.714H869.234V656.286ZM869.234 642.571H872.663V646H869.234V642.571ZM869.234 646H872.663V649.429H869.234V646ZM865.806 649.429H869.234V652.857H865.806V649.429ZM865.806 646H869.234V649.429H865.806V646ZM865.806 642.571H869.234V646H865.806V642.571ZM858.948 635.714H862.377V639.143H858.948V635.714ZM862.377 635.714H865.806V639.143H862.377V635.714ZM865.806 635.714H869.234V639.143H865.806V635.714ZM865.806 639.143H869.234V642.571H865.806V639.143ZM862.377 639.143H865.806V642.571H862.377V639.143ZM858.948 639.143H862.377V642.571H858.948V639.143ZM858.948 642.571H862.377V646H858.948V642.571ZM862.377 642.571H865.806V646H862.377V642.571ZM862.377 646H865.806V649.429H862.377V646ZM862.377 649.429H865.806V652.857H862.377V649.429ZM858.948 649.429H862.377V652.857H858.948V649.429ZM858.948 646H862.377V649.429H858.948V646ZM858.948 652.857H862.377V656.286H858.948V652.857ZM862.377 652.857H865.806V656.286H862.377V652.857ZM862.377 656.286H865.806V659.714H862.377V656.286ZM862.377 659.714H865.806V663.143H862.377V659.714ZM862.377 663.143H865.806V666.571H862.377V663.143ZM862.377 666.571H865.806V670H862.377V666.571ZM858.948 666.571H862.377V670H858.948V666.571ZM858.948 663.143H862.377V666.571H858.948V663.143ZM858.948 659.714H862.377V663.143H858.948V659.714ZM858.948 656.286H862.377V659.714H858.948V656.286ZM872.663 659.714H876.091V663.143H872.663V659.714ZM872.663 663.143H876.091V666.571H872.663V663.143ZM876.091 659.714H879.52V663.143H876.091V659.714ZM876.091 656.286H879.52V659.714H876.091V656.286ZM876.091 663.143H879.52V666.571H876.091V663.143ZM876.091 666.571H879.52V670H876.091V666.571ZM879.52 666.571H882.948V670H879.52V666.571ZM882.948 666.571H886.377V670H882.948V666.571ZM882.948 663.143H886.377V666.571H882.948V663.143ZM882.948 659.714H886.377V663.143H882.948V659.714ZM879.52 659.714H882.948V663.143H879.52V659.714ZM879.52 663.143H882.948V666.571H879.52V663.143ZM879.52 656.286H882.948V659.714H879.52V656.286ZM882.948 652.857H886.377V656.286H882.948V652.857ZM882.948 649.429H886.377V652.857H882.948V649.429ZM882.948 656.286H886.377V659.714H882.948V656.286ZM879.52 652.857H882.948V656.286H879.52V652.857ZM879.52 649.429H882.948V652.857H879.52V649.429ZM879.52 646H882.948V649.429H879.52V646ZM882.948 646H886.377V649.429H882.948V646ZM882.948 642.571H886.377V646H882.948V642.571ZM879.52 635.714H882.948V639.143H879.52V635.714ZM882.948 635.714H886.377V639.143H882.948V635.714ZM882.948 639.143H886.377V642.571H882.948V639.143ZM879.52 639.143H882.948V642.571H879.52V639.143ZM879.52 642.571H882.948V646H879.52V642.571Z" fill="white" style="fill:white;fill-opacity:1;"/>
<path d="M628.233 490.889H632.974V495.63H628.233V490.889ZM632.974 490.889H637.715V495.63H632.974V490.889ZM637.715 490.889H642.455V495.63H637.715V490.889ZM642.455 490.889H647.196V495.63H642.455V490.889ZM647.196 490.889H651.937V495.63H647.196V490.889ZM651.937 490.889H656.678V495.63H651.937V490.889ZM651.937 495.63H656.678V500.37H651.937V495.63ZM656.678 495.63H661.418V500.37H656.678V495.63ZM647.196 495.63H651.937V500.37H647.196V495.63ZM642.455 495.63H647.196V500.37H642.455V495.63ZM637.715 495.63H642.455V500.37H637.715V495.63ZM632.974 495.63H637.715V500.37H632.974V495.63ZM628.233 495.63H632.974V500.37H628.233V495.63ZM623.492 500.37H628.233V505.111H623.492V500.37ZM623.492 495.63H628.233V500.37H623.492V495.63ZM618.752 500.37H623.492V505.111H618.752V500.37ZM628.233 500.37H632.974V505.111H628.233V500.37ZM632.974 500.37H637.715V505.111H632.974V500.37ZM637.715 500.37H642.455V505.111H637.715V500.37ZM642.455 500.37H647.196V505.111H642.455V500.37ZM647.196 500.37H651.937V505.111H647.196V500.37ZM651.937 500.37H656.678V505.111H651.937V500.37ZM656.678 500.37H661.418V505.111H656.678V500.37ZM661.418 500.37H666.159V505.111H661.418V500.37ZM661.418 505.111H666.159V509.852H661.418V505.111ZM656.678 505.111H661.418V509.852H656.678V505.111ZM651.937 505.111H656.678V509.852H651.937V505.111ZM647.196 505.111H651.937V509.852H647.196V505.111ZM651.937 509.852H656.678V514.593H651.937V509.852ZM661.418 509.852H666.159V514.593H661.418V509.852ZM656.678 509.852H661.418V514.593H656.678V509.852ZM661.418 538.296H666.159V543.037H661.418V538.296ZM661.418 543.037H666.159V547.778H661.418V543.037ZM661.418 547.778H666.159V552.519H661.418V547.778ZM656.678 547.778H661.418V552.519H656.678V547.778ZM656.678 543.037H661.418V547.778H656.678V543.037ZM656.678 538.296H661.418V543.037H656.678V538.296ZM651.937 538.296H656.678V543.037H651.937V538.296ZM651.937 543.037H656.678V547.778H651.937V543.037ZM647.196 543.037H651.937V547.778H647.196V543.037ZM651.937 547.778H656.678V552.519H651.937V547.778ZM656.678 552.519H661.418V557.259H656.678V552.519ZM651.937 552.519H656.678V557.259H651.937V552.519ZM647.196 547.778H651.937V552.519H647.196V547.778ZM647.196 552.519H651.937V557.259H647.196V552.519ZM651.937 557.259H656.678V562H651.937V557.259ZM647.196 557.259H651.937V562H647.196V557.259ZM642.455 557.259H647.196V562H642.455V557.259ZM637.715 557.259H642.455V562H637.715V557.259ZM632.974 557.259H637.715V562H632.974V557.259ZM628.233 557.259H632.974V562H628.233V557.259ZM628.233 552.519H632.974V557.259H628.233V552.519ZM632.974 552.519H637.715V557.259H632.974V552.519ZM632.974 547.778H637.715V552.519H632.974V547.778ZM637.715 547.778H642.455V552.519H637.715V547.778ZM642.455 547.778H647.196V552.519H642.455V547.778ZM642.455 552.519H647.196V557.259H642.455V552.519ZM637.715 552.519H642.455V557.259H637.715V552.519ZM623.492 552.519H628.233V557.259H623.492V552.519ZM628.233 547.778H632.974V552.519H628.233V547.778ZM632.974 543.037H637.715V547.778H632.974V543.037ZM628.233 543.037H632.974V547.778H628.233V543.037ZM623.492 543.037H628.233V547.778H623.492V543.037ZM623.492 547.778H628.233V552.519H623.492V547.778ZM618.752 547.778H623.492V552.519H618.752V547.778ZM618.752 543.037H623.492V547.778H618.752V543.037ZM618.752 538.296H623.492V543.037H618.752V538.296ZM618.752 533.556H623.492V538.296H618.752V533.556ZM618.752 528.815H623.492V533.556H618.752V528.815ZM618.752 524.074H623.492V528.815H618.752V524.074ZM618.752 519.333H623.492V524.074H618.752V519.333ZM618.752 514.593H623.492V519.333H618.752V514.593ZM618.752 509.852H623.492V514.593H618.752V509.852ZM618.752 505.111H623.492V509.852H618.752V505.111ZM623.492 505.111H628.233V509.852H623.492V505.111ZM628.233 505.111H632.974V509.852H628.233V505.111ZM632.974 505.111H637.715V509.852H632.974V505.111ZM628.233 509.852H632.974V514.593H628.233V509.852ZM628.233 514.593H632.974V519.333H628.233V514.593ZM628.233 519.333H632.974V524.074H628.233V519.333ZM628.233 524.074H632.974V528.815H628.233V524.074ZM628.233 528.815H632.974V533.556H628.233V528.815ZM628.233 533.556H632.974V538.296H628.233V533.556ZM628.233 538.296H632.974V543.037H628.233V538.296ZM623.492 538.296H628.233V543.037H623.492V538.296ZM623.492 533.556H628.233V538.296H623.492V533.556ZM623.492 528.815H628.233V533.556H623.492V528.815ZM623.492 524.074H628.233V528.815H623.492V524.074ZM623.492 519.333H628.233V524.074H623.492V519.333ZM623.492 514.593H628.233V519.333H623.492V514.593ZM623.492 509.852H628.233V514.593H623.492V509.852ZM675.627 490.889H680.367V495.63H675.627V490.889ZM680.367 490.889H685.108V495.63H680.367V490.889ZM685.108 490.889H689.849V495.63H685.108V490.889ZM689.849 490.889H694.59V495.63H689.849V490.889ZM694.59 490.889H699.33V495.63H694.59V490.889ZM699.33 490.889H704.071V495.63H699.33V490.889ZM704.071 490.889H708.812V495.63H704.071V490.889ZM708.812 490.889H713.553V495.63H708.812V490.889ZM708.812 495.63H713.553V500.37H708.812V495.63ZM713.553 495.63H718.293V500.37H713.553V495.63ZM704.071 495.63H708.812V500.37H704.071V495.63ZM699.33 495.63H704.071V500.37H699.33V495.63ZM694.59 495.63H699.33V500.37H694.59V495.63ZM689.849 495.63H694.59V500.37H689.849V495.63ZM685.108 495.63H689.849V500.37H685.108V495.63ZM680.367 495.63H685.108V500.37H680.367V495.63ZM675.627 495.63H680.367V500.37H675.627V495.63ZM675.627 500.37H680.367V505.111H675.627V500.37ZM680.367 500.37H685.108V505.111H680.367V500.37ZM685.108 500.37H689.849V505.111H685.108V500.37ZM689.849 500.37H694.59V505.111H689.849V500.37ZM699.33 500.37H704.071V505.111H699.33V500.37ZM704.071 500.37H708.812V505.111H704.071V500.37ZM708.812 500.37H713.553V505.111H708.812V500.37ZM713.553 500.37H718.293V505.111H713.553V500.37ZM718.293 500.37H723.034V505.111H718.293V500.37ZM694.59 500.37H699.33V505.111H694.59V500.37ZM704.071 505.111H708.812V509.852H704.071V505.111ZM708.812 505.111H713.553V509.852H708.812V505.111ZM718.293 505.111H723.034V509.852H718.293V505.111ZM713.553 505.111H718.293V509.852H713.553V505.111ZM713.553 509.852H718.293V514.593H713.553V509.852ZM713.553 519.333H718.293V524.074H713.553V519.333ZM718.293 519.333H723.034V524.074H718.293V519.333ZM718.293 524.074H723.034V528.815H718.293V524.074ZM718.293 509.852H723.034V514.593H718.293V509.852ZM708.812 519.333H713.553V524.074H708.812V519.333ZM708.812 509.852H713.553V514.593H708.812V509.852ZM704.071 519.333H708.812V524.074H704.071V519.333ZM708.812 524.074H713.553V528.815H708.812V524.074ZM713.553 524.074H718.293V528.815H713.553V524.074ZM713.553 528.815H718.293V533.556H713.553V528.815ZM704.071 533.556H708.812V538.296H704.071V533.556ZM708.812 533.556H713.553V538.296H708.812V533.556ZM708.812 528.815H713.553V533.556H708.812V528.815ZM704.071 528.815H708.812V533.556H704.071V528.815ZM704.071 524.074H708.812V528.815H704.071V524.074ZM699.33 533.556H704.071V538.296H699.33V533.556ZM694.59 533.556H699.33V538.296H694.59V533.556ZM689.849 533.556H694.59V538.296H689.849V533.556ZM689.849 528.815H694.59V533.556H689.849V528.815ZM694.59 528.815H699.33V533.556H694.59V528.815ZM694.59 524.074H699.33V528.815H694.59V524.074ZM699.33 524.074H704.071V528.815H699.33V524.074ZM689.849 524.074H694.59V528.815H689.849V524.074ZM699.33 528.815H704.071V533.556H699.33V528.815ZM680.367 505.111H685.108V509.852H680.367V505.111ZM685.108 505.111H689.849V509.852H685.108V505.111ZM685.108 509.852H689.849V514.593H685.108V509.852ZM685.108 514.593H689.849V519.333H685.108V514.593ZM685.108 519.333H689.849V524.074H685.108V519.333ZM680.367 519.333H685.108V524.074H680.367V519.333ZM675.627 519.333H680.367V524.074H675.627V519.333ZM675.627 514.593H680.367V519.333H675.627V514.593ZM675.627 509.852H680.367V514.593H675.627V509.852ZM675.627 505.111H680.367V509.852H675.627V505.111ZM680.367 514.593H685.108V519.333H680.367V514.593ZM680.367 524.074H685.108V528.815H680.367V524.074ZM680.367 509.852H685.108V514.593H680.367V509.852ZM675.627 524.074H680.367V528.815H675.627V524.074ZM675.627 528.815H680.367V533.556H675.627V528.815ZM680.367 528.815H685.108V533.556H680.367V528.815ZM685.108 524.074H689.849V528.815H685.108V524.074ZM685.108 528.815H689.849V533.556H685.108V528.815ZM685.108 533.556H689.849V538.296H685.108V533.556ZM685.108 538.296H689.849V543.037H685.108V538.296ZM685.108 543.037H689.849V547.778H685.108V543.037ZM685.108 547.778H689.849V552.519H685.108V547.778ZM685.108 557.259H689.849V562H685.108V557.259ZM680.367 557.259H685.108V562H680.367V557.259ZM675.627 557.259H680.367V562H675.627V557.259ZM675.627 552.519H680.367V557.259H675.627V552.519ZM675.627 547.778H680.367V552.519H675.627V547.778ZM675.627 543.037H680.367V547.778H675.627V543.037ZM675.627 538.296H680.367V543.037H675.627V538.296ZM675.627 533.556H680.367V538.296H675.627V533.556ZM680.367 533.556H685.108V538.296H680.367V533.556ZM680.367 538.296H685.108V543.037H680.367V538.296ZM680.367 543.037H685.108V547.778H680.367V543.037ZM680.367 547.778H685.108V552.519H680.367V547.778ZM680.367 552.519H685.108V557.259H680.367V552.519ZM685.108 552.519H689.849V557.259H685.108V552.519ZM718.293 514.593H723.034V519.333H718.293V514.593ZM713.553 514.593H718.293V519.333H713.553V514.593ZM708.812 514.593H713.553V519.333H708.812V514.593ZM718.293 557.259H723.034V562H718.293V557.259ZM718.293 552.519H723.034V557.259H718.293V552.519ZM718.293 547.778H723.034V552.519H718.293V547.778ZM713.553 547.778H718.293V552.519H713.553V547.778ZM708.812 547.778H713.553V552.519H708.812V547.778ZM708.812 552.519H713.553V557.259H708.812V552.519ZM708.812 557.259H713.553V562H708.812V557.259ZM713.553 557.259H718.293V562H713.553V557.259ZM713.553 552.519H718.293V557.259H713.553V552.519ZM708.812 543.037H713.553V547.778H708.812V543.037ZM708.812 538.296H713.553V543.037H708.812V538.296ZM704.071 538.296H708.812V543.037H704.071V538.296ZM718.293 543.037H723.034V547.778H718.293V543.037ZM718.293 538.296H723.034V543.037H718.293V538.296ZM713.553 543.037H718.293V547.778H713.553V543.037ZM713.553 538.296H718.293V543.037H713.553V538.296ZM713.553 533.556H718.293V538.296H713.553V533.556ZM737.242 490.889H741.983V495.63H737.242V490.889ZM737.242 495.63H741.983V500.37H737.242V495.63ZM737.242 500.37H741.983V505.111H737.242V500.37ZM737.242 505.111H741.983V509.852H737.242V505.111ZM737.242 509.852H741.983V514.593H737.242V509.852ZM737.242 514.593H741.983V519.333H737.242V514.593ZM737.242 519.333H741.983V524.074H737.242V519.333ZM737.242 524.074H741.983V528.815H737.242V524.074ZM737.242 528.815H741.983V533.556H737.242V528.815ZM737.242 533.556H741.983V538.296H737.242V533.556ZM737.242 538.296H741.983V543.037H737.242V538.296ZM737.242 543.037H741.983V547.778H737.242V543.037ZM737.242 547.778H741.983V552.519H737.242V547.778ZM737.242 552.519H741.983V557.259H737.242V552.519ZM737.242 557.259H741.983V562H737.242V557.259ZM732.502 557.259H737.242V562H732.502V557.259ZM732.502 552.519H737.242V557.259H732.502V552.519ZM732.502 547.778H737.242V552.519H732.502V547.778ZM732.502 495.63H737.242V500.37H732.502V495.63ZM732.502 490.889H737.242V495.63H732.502V490.889ZM732.502 500.37H737.242V505.111H732.502V500.37ZM732.502 505.111H737.242V509.852H732.502V505.111ZM732.502 509.852H737.242V514.593H732.502V509.852ZM732.502 514.593H737.242V519.333H732.502V514.593ZM732.502 519.333H737.242V524.074H732.502V519.333ZM732.502 524.074H737.242V528.815H732.502V524.074ZM732.502 528.815H737.242V533.556H732.502V528.815ZM732.502 533.556H737.242V538.296H732.502V533.556ZM732.502 538.296H737.242V543.037H732.502V538.296ZM732.502 543.037H737.242V547.778H732.502V543.037ZM741.983 557.259H746.724V562H741.983V557.259ZM741.983 552.519H746.724V557.259H741.983V552.519ZM741.983 547.778H746.724V552.519H741.983V547.778ZM741.983 543.037H746.724V547.778H741.983V543.037ZM741.983 533.556H746.724V538.296H741.983V533.556ZM741.983 528.815H746.724V533.556H741.983V528.815ZM741.983 524.074H746.724V528.815H741.983V524.074ZM741.983 519.333H746.724V524.074H741.983V519.333ZM741.983 514.593H746.724V519.333H741.983V514.593ZM741.983 509.852H746.724V514.593H741.983V509.852ZM741.983 490.889H746.724V495.63H741.983V490.889ZM741.983 495.63H746.724V500.37H741.983V495.63ZM741.983 500.37H746.724V505.111H741.983V500.37ZM741.983 505.111H746.724V509.852H741.983V505.111ZM741.983 538.296H746.724V543.037H741.983V538.296ZM746.724 557.259H751.465V562H746.724V557.259ZM751.465 557.259H756.205V562H751.465V557.259ZM756.205 557.259H760.946V562H756.205V557.259ZM756.205 552.519H760.946V557.259H756.205V552.519ZM756.205 547.778H760.946V552.519H756.205V547.778ZM751.465 547.778H756.205V552.519H751.465V547.778ZM751.465 552.519H756.205V557.259H751.465V552.519ZM746.724 552.519H751.465V557.259H746.724V552.519ZM746.724 547.778H751.465V552.519H746.724V547.778ZM760.946 547.778H765.687V552.519H760.946V547.778ZM760.946 552.519H765.687V557.259H760.946V552.519ZM760.946 557.259H765.687V562H760.946V557.259ZM765.687 557.259H770.428V562H765.687V557.259ZM765.687 552.519H770.428V557.259H765.687V552.519ZM765.687 547.778H770.428V552.519H765.687V547.778ZM770.428 547.778H775.168V552.519H770.428V547.778ZM770.428 552.519H775.168V557.259H770.428V552.519ZM770.428 557.259H775.168V562H770.428V557.259ZM746.724 490.889H751.465V495.63H746.724V490.889ZM751.465 490.889H756.205V495.63H751.465V490.889ZM756.205 490.889H760.946V495.63H756.205V490.889ZM760.946 490.889H765.687V495.63H760.946V490.889ZM765.687 490.889H770.428V495.63H765.687V490.889ZM770.428 490.889H775.168V495.63H770.428V490.889ZM770.428 495.63H775.168V500.37H770.428V495.63ZM770.428 500.37H775.168V505.111H770.428V500.37ZM765.687 500.37H770.428V505.111H765.687V500.37ZM760.946 500.37H765.687V505.111H760.946V500.37ZM756.205 500.37H760.946V505.111H756.205V500.37ZM751.465 500.37H756.205V505.111H751.465V500.37ZM751.465 495.63H756.205V500.37H751.465V495.63ZM746.724 495.63H751.465V500.37H746.724V495.63ZM746.724 500.37H751.465V505.111H746.724V500.37ZM756.205 495.63H760.946V500.37H756.205V495.63ZM760.946 495.63H765.687V500.37H760.946V495.63ZM765.687 495.63H770.428V500.37H765.687V495.63ZM746.724 519.333H751.465V524.074H746.724V519.333ZM746.724 524.074H751.465V528.815H746.724V524.074ZM746.724 528.815H751.465V533.556H746.724V528.815ZM751.465 528.815H756.205V533.556H751.465V528.815ZM751.465 524.074H756.205V528.815H751.465V524.074ZM751.465 519.333H756.205V524.074H751.465V519.333ZM756.205 519.333H760.946V524.074H756.205V519.333ZM756.205 524.074H760.946V528.815H756.205V524.074ZM760.946 524.074H765.687V528.815H760.946V524.074ZM760.946 519.333H765.687V524.074H760.946V519.333ZM760.946 528.815H765.687V533.556H760.946V528.815ZM756.205 528.815H760.946V533.556H756.205V528.815ZM765.687 519.333H770.428V524.074H765.687V519.333ZM765.687 524.074H770.428V528.815H765.687V524.074ZM765.687 528.815H770.428V533.556H765.687V528.815ZM803.59 490.889H808.33V495.63H803.59V490.889ZM808.33 490.889H813.071V495.63H808.33V490.889ZM808.33 495.63H813.071V500.37H808.33V495.63ZM813.071 495.63H817.812V500.37H813.071V495.63ZM803.59 495.63H808.33V500.37H803.59V495.63ZM798.849 495.63H803.59V500.37H798.849V495.63ZM798.849 500.37H803.59V505.111H798.849V500.37ZM794.108 500.37H798.849V505.111H794.108V500.37ZM803.59 500.37H808.33V505.111H803.59V500.37ZM808.33 500.37H813.071V505.111H808.33V500.37ZM813.071 500.37H817.812V505.111H813.071V500.37ZM817.812 500.37H822.553V505.111H817.812V500.37ZM817.812 505.111H822.553V509.852H817.812V505.111ZM822.553 505.111H827.293V509.852H822.553V505.111ZM813.071 505.111H817.812V509.852H813.071V505.111ZM808.33 505.111H813.071V509.852H808.33V505.111ZM803.59 505.111H808.33V509.852H803.59V505.111ZM798.849 505.111H803.59V509.852H798.849V505.111ZM794.108 505.111H798.849V509.852H794.108V505.111ZM789.367 505.111H794.108V509.852H789.367V505.111ZM798.849 509.852H803.59V514.593H798.849V509.852ZM794.108 509.852H798.849V514.593H794.108V509.852ZM789.367 509.852H794.108V514.593H789.367V509.852ZM784.627 509.852H789.367V514.593H784.627V509.852ZM784.627 514.593H789.367V519.333H784.627V514.593ZM784.627 519.333H789.367V524.074H784.627V519.333ZM789.367 519.333H794.108V524.074H789.367V519.333ZM789.367 514.593H794.108V519.333H789.367V514.593ZM794.108 514.593H798.849V519.333H794.108V514.593ZM794.108 519.333H798.849V524.074H794.108V519.333ZM794.108 524.074H798.849V528.815H794.108V524.074ZM789.367 524.074H794.108V528.815H789.367V524.074ZM784.627 524.074H789.367V528.815H784.627V524.074ZM784.627 528.815H789.367V533.556H784.627V528.815ZM789.367 528.815H794.108V533.556H789.367V528.815ZM794.108 528.815H798.849V533.556H794.108V528.815ZM798.849 528.815H803.59V533.556H798.849V528.815ZM803.59 528.815H808.33V533.556H803.59V528.815ZM808.33 528.815H813.071V533.556H808.33V528.815ZM813.071 528.815H817.812V533.556H813.071V528.815ZM817.812 524.074H822.553V528.815H817.812V524.074ZM822.553 524.074H827.293V528.815H822.553V524.074ZM822.553 528.815H827.293V533.556H822.553V528.815ZM817.812 528.815H822.553V533.556H817.812V528.815ZM827.293 528.815H832.034V533.556H827.293V528.815ZM827.293 524.074H832.034V528.815H827.293V524.074ZM827.293 519.333H832.034V524.074H827.293V519.333ZM827.293 514.593H832.034V519.333H827.293V514.593ZM827.293 509.852H832.034V514.593H827.293V509.852ZM822.553 509.852H827.293V514.593H822.553V509.852ZM817.812 509.852H822.553V514.593H817.812V509.852ZM813.071 509.852H817.812V514.593H813.071V509.852ZM822.553 514.593H827.293V519.333H822.553V514.593ZM822.553 519.333H827.293V524.074H822.553V519.333ZM817.812 519.333H822.553V524.074H817.812V519.333ZM817.812 514.593H822.553V519.333H817.812V514.593ZM784.627 533.556H789.367V538.296H784.627V533.556ZM789.367 533.556H794.108V538.296H789.367V533.556ZM794.108 533.556H798.849V538.296H794.108V533.556ZM798.849 533.556H803.59V538.296H798.849V533.556ZM803.59 533.556H808.33V538.296H803.59V533.556ZM808.33 533.556H813.071V538.296H808.33V533.556ZM813.071 533.556H817.812V538.296H813.071V533.556ZM817.812 533.556H822.553V538.296H817.812V533.556ZM822.553 533.556H827.293V538.296H822.553V533.556ZM827.293 533.556H832.034V538.296H827.293V533.556ZM827.293 538.296H832.034V543.037H827.293V538.296ZM822.553 538.296H827.293V543.037H822.553V538.296ZM817.812 538.296H822.553V543.037H817.812V538.296ZM813.071 538.296H817.812V543.037H813.071V538.296ZM808.33 538.296H813.071V543.037H808.33V538.296ZM803.59 538.296H808.33V543.037H803.59V538.296ZM798.849 538.296H803.59V543.037H798.849V538.296ZM789.367 538.296H794.108V543.037H789.367V538.296ZM784.627 538.296H789.367V543.037H784.627V538.296ZM794.108 538.296H798.849V543.037H794.108V538.296ZM794.108 543.037H798.849V547.778H794.108V543.037ZM794.108 547.778H798.849V552.519H794.108V547.778ZM794.108 552.519H798.849V557.259H794.108V552.519ZM794.108 557.259H798.849V562H794.108V557.259ZM789.367 557.259H794.108V562H789.367V557.259ZM784.627 557.259H789.367V562H784.627V557.259ZM784.627 552.519H789.367V557.259H784.627V552.519ZM784.627 547.778H789.367V552.519H784.627V547.778ZM784.627 543.037H789.367V547.778H784.627V543.037ZM789.367 543.037H794.108V547.778H789.367V543.037ZM789.367 547.778H794.108V552.519H789.367V547.778ZM789.367 552.519H794.108V557.259H789.367V552.519ZM817.812 543.037H822.553V547.778H817.812V543.037ZM817.812 547.778H822.553V552.519H817.812V547.778ZM817.812 552.519H822.553V557.259H817.812V552.519ZM817.812 557.259H822.553V562H817.812V557.259ZM822.553 557.259H827.293V562H822.553V557.259ZM827.293 557.259H832.034V562H827.293V557.259ZM827.293 552.519H832.034V557.259H827.293V552.519ZM827.293 547.778H832.034V552.519H827.293V547.778ZM827.293 543.037H832.034V547.778H827.293V543.037ZM822.553 543.037H827.293V547.778H822.553V543.037ZM822.553 547.778H827.293V552.519H822.553V547.778ZM822.553 552.519H827.293V557.259H822.553V552.519ZM855.724 557.259H860.465V562H855.724V557.259ZM860.465 557.259H865.205V562H860.465V557.259ZM865.205 557.259H869.946V562H865.205V557.259ZM865.205 552.519H869.946V557.259H865.205V552.519ZM865.205 547.778H869.946V552.519H865.205V547.778ZM865.205 543.037H869.946V547.778H865.205V543.037ZM865.205 538.296H869.946V543.037H865.205V538.296ZM865.205 533.556H869.946V538.296H865.205V533.556ZM865.205 528.815H869.946V533.556H865.205V528.815ZM865.205 524.074H869.946V528.815H865.205V524.074ZM865.205 519.333H869.946V524.074H865.205V519.333ZM865.205 514.593H869.946V519.333H865.205V514.593ZM865.205 509.852H869.946V514.593H865.205V509.852ZM865.205 505.111H869.946V509.852H865.205V505.111ZM860.465 505.111H865.205V509.852H860.465V505.111ZM860.465 500.37H865.205V505.111H860.465V500.37ZM865.205 500.37H869.946V505.111H865.205V500.37ZM855.724 500.37H860.465V505.111H855.724V500.37ZM855.724 519.333H860.465V524.074H855.724V519.333ZM855.724 524.074H860.465V528.815H855.724V524.074ZM855.724 528.815H860.465V533.556H855.724V528.815ZM855.724 533.556H860.465V538.296H855.724V533.556ZM855.724 538.296H860.465V543.037H855.724V538.296ZM860.465 543.037H865.205V547.778H860.465V543.037ZM860.465 547.778H865.205V552.519H860.465V547.778ZM860.465 552.519H865.205V557.259H860.465V552.519ZM855.724 552.519H860.465V557.259H855.724V552.519ZM855.724 547.778H860.465V552.519H855.724V547.778ZM855.724 543.037H860.465V547.778H855.724V543.037ZM860.465 524.074H865.205V528.815H860.465V524.074ZM860.465 519.333H865.205V524.074H860.465V519.333ZM860.465 514.593H865.205V519.333H860.465V514.593ZM860.465 509.852H865.205V514.593H860.465V509.852ZM855.724 509.852H860.465V514.593H855.724V509.852ZM855.724 514.593H860.465V519.333H855.724V514.593ZM860.465 538.296H865.205V543.037H860.465V538.296ZM860.465 533.556H865.205V538.296H860.465V533.556ZM860.465 528.815H865.205V533.556H860.465V528.815ZM855.724 505.111H860.465V509.852H855.724V505.111ZM855.724 495.63H860.465V500.37H855.724V495.63ZM860.465 495.63H865.205V500.37H860.465V495.63ZM865.205 495.63H869.946V500.37H865.205V495.63ZM865.205 490.889H869.946V495.63H865.205V490.889ZM860.465 490.889H865.205V495.63H860.465V490.889ZM855.724 490.889H860.465V495.63H855.724V490.889ZM850.983 490.889H855.724V495.63H850.983V490.889ZM846.242 490.889H850.983V495.63H846.242V490.889ZM846.242 495.63H850.983V500.37H846.242V495.63ZM846.242 500.37H850.983V505.111H846.242V500.37ZM850.983 495.63H855.724V500.37H850.983V495.63ZM850.983 500.37H855.724V505.111H850.983V500.37ZM869.946 490.889H874.687V495.63H869.946V490.889ZM874.687 490.889H879.428V495.63H874.687V490.889ZM874.687 495.63H879.428V500.37H874.687V495.63ZM874.687 500.37H879.428V505.111H874.687V500.37ZM869.946 500.37H874.687V505.111H869.946V500.37ZM869.946 495.63H874.687V500.37H869.946V495.63ZM879.428 490.889H884.168V495.63H879.428V490.889ZM879.428 495.63H884.168V500.37H879.428V495.63ZM879.428 500.37H884.168V505.111H879.428V500.37ZM841.502 490.889H846.242V495.63H841.502V490.889ZM841.502 495.63H846.242V500.37H841.502V495.63ZM841.502 500.37H846.242V505.111H841.502V500.37ZM903.108 490.889H907.849V495.63H903.108V490.889ZM926.812 490.889H931.553V495.63H926.812V490.889ZM926.812 495.63H931.553V500.37H926.812V495.63ZM931.553 495.63H936.293V500.37H931.553V495.63ZM903.108 495.63H907.849V500.37H903.108V495.63ZM898.367 500.37H903.108V505.111H898.367V500.37ZM898.367 495.63H903.108V500.37H898.367V495.63ZM893.627 500.37H898.367V505.111H893.627V500.37ZM903.108 500.37H907.849V505.111H903.108V500.37ZM926.812 500.37H931.553V505.111H926.812V500.37ZM931.553 500.37H936.293V505.111H931.553V500.37ZM936.293 500.37H941.034V505.111H936.293V500.37ZM936.293 505.111H941.034V509.852H936.293V505.111ZM931.553 505.111H936.293V509.852H931.553V505.111ZM926.812 505.111H931.553V509.852H926.812V505.111ZM926.812 509.852H931.553V514.593H926.812V509.852ZM926.812 514.593H931.553V519.333H926.812V514.593ZM926.812 519.333H931.553V524.074H926.812V519.333ZM926.812 524.074H931.553V528.815H926.812V524.074ZM926.812 528.815H931.553V533.556H926.812V528.815ZM931.553 524.074H936.293V528.815H931.553V524.074ZM936.293 524.074H941.034V528.815H936.293V524.074ZM936.293 519.333H941.034V524.074H936.293V519.333ZM936.293 514.593H941.034V519.333H936.293V514.593ZM936.293 509.852H941.034V514.593H936.293V509.852ZM931.553 509.852H936.293V514.593H931.553V509.852ZM931.553 514.593H936.293V519.333H931.553V514.593ZM931.553 519.333H936.293V524.074H931.553V519.333ZM931.553 528.815H936.293V533.556H931.553V528.815ZM931.553 533.556H936.293V538.296H931.553V533.556ZM936.293 533.556H941.034V538.296H936.293V533.556ZM936.293 528.815H941.034V533.556H936.293V528.815ZM936.293 538.296H941.034V543.037H936.293V538.296ZM936.293 543.037H941.034V547.778H936.293V543.037ZM936.293 547.778H941.034V552.519H936.293V547.778ZM931.553 547.778H936.293V552.519H931.553V547.778ZM931.553 543.037H936.293V547.778H931.553V543.037ZM931.553 538.296H936.293V543.037H931.553V538.296ZM926.812 533.556H931.553V538.296H926.812V533.556ZM926.812 538.296H931.553V543.037H926.812V538.296ZM926.812 543.037H931.553V547.778H926.812V543.037ZM922.071 543.037H926.812V547.778H922.071V543.037ZM926.812 547.778H931.553V552.519H926.812V547.778ZM931.553 552.519H936.293V557.259H931.553V552.519ZM926.812 552.519H931.553V557.259H926.812V552.519ZM922.071 547.778H926.812V552.519H922.071V547.778ZM922.071 552.519H926.812V557.259H922.071V552.519ZM926.812 557.259H931.553V562H926.812V557.259ZM922.071 557.259H926.812V562H922.071V557.259ZM917.33 557.259H922.071V562H917.33V557.259ZM912.59 557.259H917.33V562H912.59V557.259ZM907.849 557.259H912.59V562H907.849V557.259ZM903.108 557.259H907.849V562H903.108V557.259ZM903.108 552.519H907.849V557.259H903.108V552.519ZM907.849 552.519H912.59V557.259H907.849V552.519ZM907.849 547.778H912.59V552.519H907.849V547.778ZM912.59 547.778H917.33V552.519H912.59V547.778ZM917.33 547.778H922.071V552.519H917.33V547.778ZM917.33 552.519H922.071V557.259H917.33V552.519ZM912.59 552.519H917.33V557.259H912.59V552.519ZM898.367 552.519H903.108V557.259H898.367V552.519ZM903.108 547.778H907.849V552.519H903.108V547.778ZM907.849 543.037H912.59V547.778H907.849V543.037ZM903.108 543.037H907.849V547.778H903.108V543.037ZM898.367 543.037H903.108V547.778H898.367V543.037ZM898.367 547.778H903.108V552.519H898.367V547.778ZM893.627 547.778H898.367V552.519H893.627V547.778ZM893.627 543.037H898.367V547.778H893.627V543.037ZM893.627 538.296H898.367V543.037H893.627V538.296ZM893.627 533.556H898.367V538.296H893.627V533.556ZM893.627 528.815H898.367V533.556H893.627V528.815ZM893.627 524.074H898.367V528.815H893.627V524.074ZM893.627 519.333H898.367V524.074H893.627V519.333ZM893.627 514.593H898.367V519.333H893.627V514.593ZM893.627 509.852H898.367V514.593H893.627V509.852ZM893.627 505.111H898.367V509.852H893.627V505.111ZM898.367 505.111H903.108V509.852H898.367V505.111ZM903.108 505.111H907.849V509.852H903.108V505.111ZM903.108 509.852H907.849V514.593H903.108V509.852ZM903.108 514.593H907.849V519.333H903.108V514.593ZM903.108 519.333H907.849V524.074H903.108V519.333ZM903.108 524.074H907.849V528.815H903.108V524.074ZM903.108 528.815H907.849V533.556H903.108V528.815ZM903.108 533.556H907.849V538.296H903.108V533.556ZM903.108 538.296H907.849V543.037H903.108V538.296ZM898.367 538.296H903.108V543.037H898.367V538.296ZM898.367 533.556H903.108V538.296H898.367V533.556ZM898.367 528.815H903.108V533.556H898.367V528.815ZM898.367 524.074H903.108V528.815H898.367V524.074ZM898.367 519.333H903.108V524.074H898.367V519.333ZM898.367 514.593H903.108V519.333H898.367V514.593ZM898.367 509.852H903.108V514.593H898.367V509.852ZM898.367 490.889H903.108V495.63H898.367V490.889ZM893.627 490.889H898.367V495.63H893.627V490.889ZM893.627 495.63H898.367V500.37H893.627V495.63ZM931.553 490.889H936.293V495.63H931.553V490.889ZM936.293 490.889H941.034V495.63H936.293V490.889ZM936.293 495.63H941.034V500.37H936.293V495.63ZM950.502 490.889H955.242V495.63H950.502V490.889ZM955.242 490.889H959.983V495.63H955.242V490.889ZM959.983 490.889H964.724V495.63H959.983V490.889ZM964.724 490.889H969.465V495.63H964.724V490.889ZM969.465 490.889H974.205V495.63H969.465V490.889ZM974.205 490.889H978.946V495.63H974.205V490.889ZM978.946 490.889H983.687V495.63H978.946V490.889ZM983.687 490.889H988.428V495.63H983.687V490.889ZM983.687 495.63H988.428V500.37H983.687V495.63ZM988.428 495.63H993.168V500.37H988.428V495.63ZM978.946 495.63H983.687V500.37H978.946V495.63ZM974.205 495.63H978.946V500.37H974.205V495.63ZM969.465 495.63H974.205V500.37H969.465V495.63ZM964.724 495.63H969.465V500.37H964.724V495.63ZM959.983 495.63H964.724V500.37H959.983V495.63ZM955.242 495.63H959.983V500.37H955.242V495.63ZM950.502 495.63H955.242V500.37H950.502V495.63ZM950.502 500.37H955.242V505.111H950.502V500.37ZM955.242 500.37H959.983V505.111H955.242V500.37ZM959.983 500.37H964.724V505.111H959.983V500.37ZM964.724 500.37H969.465V505.111H964.724V500.37ZM974.205 500.37H978.946V505.111H974.205V500.37ZM978.946 500.37H983.687V505.111H978.946V500.37ZM983.687 500.37H988.428V505.111H983.687V500.37ZM988.428 500.37H993.168V505.111H988.428V500.37ZM993.168 500.37H997.909V505.111H993.168V500.37ZM969.465 500.37H974.205V505.111H969.465V500.37ZM978.946 505.111H983.687V509.852H978.946V505.111ZM983.687 505.111H988.428V509.852H983.687V505.111ZM993.168 505.111H997.909V509.852H993.168V505.111ZM988.428 505.111H993.168V509.852H988.428V505.111ZM988.428 509.852H993.168V514.593H988.428V509.852ZM988.428 519.333H993.168V524.074H988.428V519.333ZM993.168 519.333H997.909V524.074H993.168V519.333ZM993.168 524.074H997.909V528.815H993.168V524.074ZM993.168 509.852H997.909V514.593H993.168V509.852ZM983.687 519.333H988.428V524.074H983.687V519.333ZM983.687 509.852H988.428V514.593H983.687V509.852ZM978.946 519.333H983.687V524.074H978.946V519.333ZM983.687 524.074H988.428V528.815H983.687V524.074ZM988.428 524.074H993.168V528.815H988.428V524.074ZM988.428 528.815H993.168V533.556H988.428V528.815ZM978.946 533.556H983.687V538.296H978.946V533.556ZM983.687 533.556H988.428V538.296H983.687V533.556ZM983.687 528.815H988.428V533.556H983.687V528.815ZM978.946 528.815H983.687V533.556H978.946V528.815ZM978.946 524.074H983.687V528.815H978.946V524.074ZM974.205 533.556H978.946V538.296H974.205V533.556ZM969.465 533.556H974.205V538.296H969.465V533.556ZM964.724 533.556H969.465V538.296H964.724V533.556ZM964.724 528.815H969.465V533.556H964.724V528.815ZM969.465 528.815H974.205V533.556H969.465V528.815ZM969.465 524.074H974.205V528.815H969.465V524.074ZM974.205 524.074H978.946V528.815H974.205V524.074ZM964.724 524.074H969.465V528.815H964.724V524.074ZM974.205 528.815H978.946V533.556H974.205V528.815ZM955.242 505.111H959.983V509.852H955.242V505.111ZM959.983 505.111H964.724V509.852H959.983V505.111ZM959.983 509.852H964.724V514.593H959.983V509.852ZM959.983 514.593H964.724V519.333H959.983V514.593ZM959.983 519.333H964.724V524.074H959.983V519.333ZM955.242 519.333H959.983V524.074H955.242V519.333ZM950.502 519.333H955.242V524.074H950.502V519.333ZM950.502 514.593H955.242V519.333H950.502V514.593ZM950.502 509.852H955.242V514.593H950.502V509.852ZM950.502 505.111H955.242V509.852H950.502V505.111ZM955.242 514.593H959.983V519.333H955.242V514.593ZM955.242 524.074H959.983V528.815H955.242V524.074ZM955.242 509.852H959.983V514.593H955.242V509.852ZM950.502 524.074H955.242V528.815H950.502V524.074ZM950.502 528.815H955.242V533.556H950.502V528.815ZM955.242 528.815H959.983V533.556H955.242V528.815ZM959.983 524.074H964.724V528.815H959.983V524.074ZM959.983 528.815H964.724V533.556H959.983V528.815ZM959.983 533.556H964.724V538.296H959.983V533.556ZM959.983 538.296H964.724V543.037H959.983V538.296ZM959.983 543.037H964.724V547.778H959.983V543.037ZM959.983 547.778H964.724V552.519H959.983V547.778ZM959.983 557.259H964.724V562H959.983V557.259ZM955.242 557.259H959.983V562H955.242V557.259ZM950.502 557.259H955.242V562H950.502V557.259ZM950.502 552.519H955.242V557.259H950.502V552.519ZM950.502 547.778H955.242V552.519H950.502V547.778ZM950.502 543.037H955.242V547.778H950.502V543.037ZM950.502 538.296H955.242V543.037H950.502V538.296ZM950.502 533.556H955.242V538.296H950.502V533.556ZM955.242 533.556H959.983V538.296H955.242V533.556ZM955.242 538.296H959.983V543.037H955.242V538.296ZM955.242 543.037H959.983V547.778H955.242V543.037ZM955.242 547.778H959.983V552.519H955.242V547.778ZM955.242 552.519H959.983V557.259H955.242V552.519ZM959.983 552.519H964.724V557.259H959.983V552.519ZM993.168 514.593H997.909V519.333H993.168V514.593ZM988.428 514.593H993.168V519.333H988.428V514.593ZM983.687 514.593H988.428V519.333H983.687V514.593ZM993.168 557.259H997.909V562H993.168V557.259ZM993.168 552.519H997.909V557.259H993.168V552.519ZM993.168 547.778H997.909V552.519H993.168V547.778ZM988.428 547.778H993.168V552.519H988.428V547.778ZM983.687 547.778H988.428V552.519H983.687V547.778ZM983.687 552.519H988.428V557.259H983.687V552.519ZM983.687 557.259H988.428V562H983.687V557.259ZM988.428 557.259H993.168V562H988.428V557.259ZM988.428 552.519H993.168V557.259H988.428V552.519ZM983.687 543.037H988.428V547.778H983.687V543.037ZM983.687 538.296H988.428V543.037H983.687V538.296ZM978.946 538.296H983.687V543.037H978.946V538.296ZM993.168 543.037H997.909V547.778H993.168V543.037ZM993.168 538.296H997.909V543.037H993.168V538.296ZM988.428 543.037H993.168V547.778H988.428V543.037ZM988.428 538.296H993.168V543.037H988.428V538.296ZM988.428 533.556H993.168V538.296H988.428V533.556ZM1012.12 490.889H1016.86V495.63H1012.12V490.889ZM1012.12 495.63H1016.86V500.37H1012.12V495.63ZM1012.12 500.37H1016.86V505.111H1012.12V500.37ZM1012.12 505.111H1016.86V509.852H1012.12V505.111ZM1012.12 509.852H1016.86V514.593H1012.12V509.852ZM1012.12 514.593H1016.86V519.333H1012.12V514.593ZM1012.12 519.333H1016.86V524.074H1012.12V519.333ZM1012.12 524.074H1016.86V528.815H1012.12V524.074ZM1012.12 528.815H1016.86V533.556H1012.12V528.815ZM1012.12 533.556H1016.86V538.296H1012.12V533.556ZM1012.12 538.296H1016.86V543.037H1012.12V538.296ZM1012.12 543.037H1016.86V547.778H1012.12V543.037ZM1012.12 547.778H1016.86V552.519H1012.12V547.778ZM1012.12 552.519H1016.86V557.259H1012.12V552.519ZM1012.12 557.259H1016.86V562H1012.12V557.259ZM1007.38 557.259H1012.12V562H1007.38V557.259ZM1007.38 552.519H1012.12V557.259H1007.38V552.519ZM1007.38 547.778H1012.12V552.519H1007.38V547.778ZM1007.38 495.63H1012.12V500.37H1007.38V495.63ZM1007.38 490.889H1012.12V495.63H1007.38V490.889ZM1007.38 500.37H1012.12V505.111H1007.38V500.37ZM1007.38 505.111H1012.12V509.852H1007.38V505.111ZM1007.38 509.852H1012.12V514.593H1007.38V509.852ZM1007.38 514.593H1012.12V519.333H1007.38V514.593ZM1007.38 519.333H1012.12V524.074H1007.38V519.333ZM1007.38 524.074H1012.12V528.815H1007.38V524.074ZM1007.38 528.815H1012.12V533.556H1007.38V528.815ZM1007.38 533.556H1012.12V538.296H1007.38V533.556ZM1007.38 538.296H1012.12V543.037H1007.38V538.296ZM1007.38 543.037H1012.12V547.778H1007.38V543.037ZM1016.86 557.259H1021.6V562H1016.86V557.259ZM1016.86 552.519H1021.6V557.259H1016.86V552.519ZM1016.86 547.778H1021.6V552.519H1016.86V547.778ZM1016.86 543.037H1021.6V547.778H1016.86V543.037ZM1016.86 533.556H1021.6V538.296H1016.86V533.556ZM1016.86 528.815H1021.6V533.556H1016.86V528.815ZM1016.86 524.074H1021.6V528.815H1016.86V524.074ZM1016.86 519.333H1021.6V524.074H1016.86V519.333ZM1016.86 514.593H1021.6V519.333H1016.86V514.593ZM1016.86 509.852H1021.6V514.593H1016.86V509.852ZM1016.86 490.889H1021.6V495.63H1016.86V490.889ZM1016.86 495.63H1021.6V500.37H1016.86V495.63ZM1016.86 500.37H1021.6V505.111H1016.86V500.37ZM1016.86 505.111H1021.6V509.852H1016.86V505.111ZM1016.86 538.296H1021.6V543.037H1016.86V538.296ZM1021.6 557.259H1026.34V562H1021.6V557.259ZM1026.34 557.259H1031.08V562H1026.34V557.259ZM1031.08 557.259H1035.82V562H1031.08V557.259ZM1031.08 552.519H1035.82V557.259H1031.08V552.519ZM1031.08 547.778H1035.82V552.519H1031.08V547.778ZM1026.34 547.778H1031.08V552.519H1026.34V547.778ZM1026.34 552.519H1031.08V557.259H1026.34V552.519ZM1021.6 552.519H1026.34V557.259H1021.6V552.519ZM1021.6 547.778H1026.34V552.519H1021.6V547.778ZM1035.82 547.778H1040.56V552.519H1035.82V547.778ZM1035.82 552.519H1040.56V557.259H1035.82V552.519ZM1035.82 557.259H1040.56V562H1035.82V557.259ZM1040.56 557.259H1045.3V562H1040.56V557.259ZM1040.56 552.519H1045.3V557.259H1040.56V552.519ZM1040.56 547.778H1045.3V552.519H1040.56V547.778ZM1045.3 547.778H1050.04V552.519H1045.3V547.778ZM1045.3 552.519H1050.04V557.259H1045.3V552.519ZM1045.3 557.259H1050.04V562H1045.3V557.259ZM1021.6 490.889H1026.34V495.63H1021.6V490.889ZM1026.34 490.889H1031.08V495.63H1026.34V490.889ZM1031.08 490.889H1035.82V495.63H1031.08V490.889ZM1035.82 490.889H1040.56V495.63H1035.82V490.889ZM1040.56 490.889H1045.3V495.63H1040.56V490.889ZM1045.3 490.889H1050.04V495.63H1045.3V490.889ZM1045.3 495.63H1050.04V500.37H1045.3V495.63ZM1045.3 500.37H1050.04V505.111H1045.3V500.37ZM1040.56 500.37H1045.3V505.111H1040.56V500.37ZM1035.82 500.37H1040.56V505.111H1035.82V500.37ZM1031.08 500.37H1035.82V505.111H1031.08V500.37ZM1026.34 500.37H1031.08V505.111H1026.34V500.37ZM1026.34 495.63H1031.08V500.37H1026.34V495.63ZM1021.6 495.63H1026.34V500.37H1021.6V495.63ZM1021.6 500.37H1026.34V505.111H1021.6V500.37ZM1031.08 495.63H1035.82V500.37H1031.08V495.63ZM1035.82 495.63H1040.56V500.37H1035.82V495.63ZM1040.56 495.63H1045.3V500.37H1040.56V495.63ZM1021.6 519.333H1026.34V524.074H1021.6V519.333ZM1021.6 524.074H1026.34V528.815H1021.6V524.074ZM1021.6 528.815H1026.34V533.556H1021.6V528.815ZM1026.34 528.815H1031.08V533.556H1026.34V528.815ZM1026.34 524.074H1031.08V528.815H1026.34V524.074ZM1026.34 519.333H1031.08V524.074H1026.34V519.333ZM1031.08 519.333H1035.82V524.074H1031.08V519.333ZM1031.08 524.074H1035.82V528.815H1031.08V524.074ZM1035.82 524.074H1040.56V528.815H1035.82V524.074ZM1035.82 519.333H1040.56V524.074H1035.82V519.333ZM1035.82 528.815H1040.56V533.556H1035.82V528.815ZM1031.08 528.815H1035.82V533.556H1031.08V528.815ZM1040.56 519.333H1045.3V524.074H1040.56V519.333ZM1040.56 524.074H1045.3V528.815H1040.56V524.074ZM1040.56 528.815H1045.3V533.556H1040.56V528.815ZM1092.74 490.889H1097.48V495.63H1092.74V490.889ZM1092.74 495.63H1097.48V500.37H1092.74V495.63ZM1092.74 500.37H1097.48V505.111H1092.74V500.37ZM1092.74 505.111H1097.48V509.852H1092.74V505.111ZM1092.74 509.852H1097.48V514.593H1092.74V509.852ZM1092.74 514.593H1097.48V519.333H1092.74V514.593ZM1092.74 519.333H1097.48V524.074H1092.74V519.333ZM1092.74 524.074H1097.48V528.815H1092.74V524.074ZM1092.74 528.815H1097.48V533.556H1092.74V528.815ZM1092.74 533.556H1097.48V538.296H1092.74V533.556ZM1092.74 538.296H1097.48V543.037H1092.74V538.296ZM1092.74 543.037H1097.48V547.778H1092.74V543.037ZM1092.74 547.778H1097.48V552.519H1092.74V547.778ZM1092.74 552.519H1097.48V557.259H1092.74V552.519ZM1092.74 557.259H1097.48V562H1092.74V557.259ZM1088 557.259H1092.74V562H1088V557.259ZM1088 552.519H1092.74V557.259H1088V552.519ZM1088 547.778H1092.74V552.519H1088V547.778ZM1088 495.63H1092.74V500.37H1088V495.63ZM1088 490.889H1092.74V495.63H1088V490.889ZM1088 500.37H1092.74V505.111H1088V500.37ZM1088 505.111H1092.74V509.852H1088V505.111ZM1088 509.852H1092.74V514.593H1088V509.852ZM1088 514.593H1092.74V519.333H1088V514.593ZM1088 519.333H1092.74V524.074H1088V519.333ZM1088 524.074H1092.74V528.815H1088V524.074ZM1088 528.815H1092.74V533.556H1088V528.815ZM1088 533.556H1092.74V538.296H1088V533.556ZM1088 538.296H1092.74V543.037H1088V538.296ZM1088 543.037H1092.74V547.778H1088V543.037ZM1097.48 557.259H1102.22V562H1097.48V557.259ZM1097.48 552.519H1102.22V557.259H1097.48V552.519ZM1097.48 547.778H1102.22V552.519H1097.48V547.778ZM1097.48 543.037H1102.22V547.778H1097.48V543.037ZM1097.48 533.556H1102.22V538.296H1097.48V533.556ZM1097.48 528.815H1102.22V533.556H1097.48V528.815ZM1097.48 524.074H1102.22V528.815H1097.48V524.074ZM1097.48 519.333H1102.22V524.074H1097.48V519.333ZM1097.48 514.593H1102.22V519.333H1097.48V514.593ZM1097.48 509.852H1102.22V514.593H1097.48V509.852ZM1097.48 490.889H1102.22V495.63H1097.48V490.889ZM1097.48 495.63H1102.22V500.37H1097.48V495.63ZM1097.48 500.37H1102.22V505.111H1097.48V500.37ZM1097.48 505.111H1102.22V509.852H1097.48V505.111ZM1097.48 538.296H1102.22V543.037H1097.48V538.296ZM1102.22 557.259H1106.96V562H1102.22V557.259ZM1106.96 557.259H1111.71V562H1106.96V557.259ZM1111.71 557.259H1116.45V562H1111.71V557.259ZM1111.71 552.519H1116.45V557.259H1111.71V552.519ZM1111.71 547.778H1116.45V552.519H1111.71V547.778ZM1106.96 547.778H1111.71V552.519H1106.96V547.778ZM1106.96 552.519H1111.71V557.259H1106.96V552.519ZM1102.22 552.519H1106.96V557.259H1102.22V552.519ZM1102.22 547.778H1106.96V552.519H1102.22V547.778ZM1116.45 547.778H1121.19V552.519H1116.45V547.778ZM1116.45 552.519H1121.19V557.259H1116.45V552.519ZM1116.45 557.259H1121.19V562H1116.45V557.259ZM1121.19 557.259H1125.93V562H1121.19V557.259ZM1121.19 552.519H1125.93V557.259H1121.19V552.519ZM1121.19 547.778H1125.93V552.519H1121.19V547.778ZM1154.34 490.889H1159.08V495.63H1154.34V490.889ZM1159.08 490.889H1163.82V495.63H1159.08V490.889ZM1159.08 495.63H1163.82V500.37H1159.08V495.63ZM1163.82 495.63H1168.56V500.37H1163.82V495.63ZM1154.34 495.63H1159.08V500.37H1154.34V495.63ZM1149.6 495.63H1154.34V500.37H1149.6V495.63ZM1149.6 500.37H1154.34V505.111H1149.6V500.37ZM1144.86 500.37H1149.6V505.111H1144.86V500.37ZM1154.34 500.37H1159.08V505.111H1154.34V500.37ZM1159.08 500.37H1163.82V505.111H1159.08V500.37ZM1163.82 500.37H1168.56V505.111H1163.82V500.37ZM1168.56 500.37H1173.3V505.111H1168.56V500.37ZM1168.56 505.111H1173.3V509.852H1168.56V505.111ZM1173.3 505.111H1178.04V509.852H1173.3V505.111ZM1163.82 505.111H1168.56V509.852H1163.82V505.111ZM1159.08 505.111H1163.82V509.852H1159.08V505.111ZM1154.34 505.111H1159.08V509.852H1154.34V505.111ZM1149.6 505.111H1154.34V509.852H1149.6V505.111ZM1144.86 505.111H1149.6V509.852H1144.86V505.111ZM1140.12 505.111H1144.86V509.852H1140.12V505.111ZM1149.6 509.852H1154.34V514.593H1149.6V509.852ZM1144.86 509.852H1149.6V514.593H1144.86V509.852ZM1140.12 509.852H1144.86V514.593H1140.12V509.852ZM1135.38 509.852H1140.12V514.593H1135.38V509.852ZM1135.38 514.593H1140.12V519.333H1135.38V514.593ZM1135.38 519.333H1140.12V524.074H1135.38V519.333ZM1140.12 519.333H1144.86V524.074H1140.12V519.333ZM1140.12 514.593H1144.86V519.333H1140.12V514.593ZM1144.86 514.593H1149.6V519.333H1144.86V514.593ZM1144.86 519.333H1149.6V524.074H1144.86V519.333ZM1144.86 524.074H1149.6V528.815H1144.86V524.074ZM1140.12 524.074H1144.86V528.815H1140.12V524.074ZM1135.38 524.074H1140.12V528.815H1135.38V524.074ZM1135.38 528.815H1140.12V533.556H1135.38V528.815ZM1140.12 528.815H1144.86V533.556H1140.12V528.815ZM1144.86 528.815H1149.6V533.556H1144.86V528.815ZM1149.6 528.815H1154.34V533.556H1149.6V528.815ZM1154.34 528.815H1159.08V533.556H1154.34V528.815ZM1159.08 528.815H1163.82V533.556H1159.08V528.815ZM1163.82 528.815H1168.56V533.556H1163.82V528.815ZM1168.56 524.074H1173.3V528.815H1168.56V524.074ZM1173.3 524.074H1178.04V528.815H1173.3V524.074ZM1173.3 528.815H1178.04V533.556H1173.3V528.815ZM1168.56 528.815H1173.3V533.556H1168.56V528.815ZM1178.04 528.815H1182.78V533.556H1178.04V528.815ZM1178.04 524.074H1182.78V528.815H1178.04V524.074ZM1178.04 519.333H1182.78V524.074H1178.04V519.333ZM1178.04 514.593H1182.78V519.333H1178.04V514.593ZM1178.04 509.852H1182.78V514.593H1178.04V509.852ZM1173.3 509.852H1178.04V514.593H1173.3V509.852ZM1168.56 509.852H1173.3V514.593H1168.56V509.852ZM1163.82 509.852H1168.56V514.593H1163.82V509.852ZM1173.3 514.593H1178.04V519.333H1173.3V514.593ZM1173.3 519.333H1178.04V524.074H1173.3V519.333ZM1168.56 519.333H1173.3V524.074H1168.56V519.333ZM1168.56 514.593H1173.3V519.333H1168.56V514.593ZM1135.38 533.556H1140.12V538.296H1135.38V533.556ZM1140.12 533.556H1144.86V538.296H1140.12V533.556ZM1144.86 533.556H1149.6V538.296H1144.86V533.556ZM1149.6 533.556H1154.34V538.296H1149.6V533.556ZM1154.34 533.556H1159.08V538.296H1154.34V533.556ZM1159.08 533.556H1163.82V538.296H1159.08V533.556ZM1163.82 533.556H1168.56V538.296H1163.82V533.556ZM1168.56 533.556H1173.3V538.296H1168.56V533.556ZM1173.3 533.556H1178.04V538.296H1173.3V533.556ZM1178.04 533.556H1182.78V538.296H1178.04V533.556ZM1178.04 538.296H1182.78V543.037H1178.04V538.296ZM1173.3 538.296H1178.04V543.037H1173.3V538.296ZM1168.56 538.296H1173.3V543.037H1168.56V538.296ZM1163.82 538.296H1168.56V543.037H1163.82V538.296ZM1159.08 538.296H1163.82V543.037H1159.08V538.296ZM1154.34 538.296H1159.08V543.037H1154.34V538.296ZM1149.6 538.296H1154.34V543.037H1149.6V538.296ZM1140.12 538.296H1144.86V543.037H1140.12V538.296ZM1135.38 538.296H1140.12V543.037H1135.38V538.296ZM1144.86 538.296H1149.6V543.037H1144.86V538.296ZM1144.86 543.037H1149.6V547.778H1144.86V543.037ZM1144.86 547.778H1149.6V552.519H1144.86V547.778ZM1144.86 552.519H1149.6V557.259H1144.86V552.519ZM1144.86 557.259H1149.6V562H1144.86V557.259ZM1140.12 557.259H1144.86V562H1140.12V557.259ZM1135.38 557.259H1140.12V562H1135.38V557.259ZM1135.38 552.519H1140.12V557.259H1135.38V552.519ZM1135.38 547.778H1140.12V552.519H1135.38V547.778ZM1135.38 543.037H1140.12V547.778H1135.38V543.037ZM1140.12 543.037H1144.86V547.778H1140.12V543.037ZM1140.12 547.778H1144.86V552.519H1140.12V547.778ZM1140.12 552.519H1144.86V557.259H1140.12V552.519ZM1168.56 543.037H1173.3V547.778H1168.56V543.037ZM1168.56 547.778H1173.3V552.519H1168.56V547.778ZM1168.56 552.519H1173.3V557.259H1168.56V552.519ZM1168.56 557.259H1173.3V562H1168.56V557.259ZM1173.3 557.259H1178.04V562H1173.3V557.259ZM1178.04 557.259H1182.78V562H1178.04V557.259ZM1178.04 552.519H1182.78V557.259H1178.04V552.519ZM1178.04 547.778H1182.78V552.519H1178.04V547.778ZM1178.04 543.037H1182.78V547.778H1178.04V543.037ZM1173.3 543.037H1178.04V547.778H1173.3V543.037ZM1173.3 547.778H1178.04V552.519H1173.3V547.778ZM1173.3 552.519H1178.04V557.259H1173.3V552.519ZM1192.25 490.889H1196.99V495.63H1192.25V490.889ZM1196.99 490.889H1201.73V495.63H1196.99V490.889ZM1201.73 490.889H1206.47V495.63H1201.73V490.889ZM1206.47 490.889H1211.21V495.63H1206.47V490.889ZM1211.21 490.889H1215.96V495.63H1211.21V490.889ZM1215.96 490.889H1220.7V495.63H1215.96V490.889ZM1220.7 490.889H1225.44V495.63H1220.7V490.889ZM1225.44 490.889H1230.18V495.63H1225.44V490.889ZM1225.44 495.63H1230.18V500.37H1225.44V495.63ZM1230.18 495.63H1234.92V500.37H1230.18V495.63ZM1220.7 495.63H1225.44V500.37H1220.7V495.63ZM1215.96 495.63H1220.7V500.37H1215.96V495.63ZM1211.21 495.63H1215.96V500.37H1211.21V495.63ZM1206.47 495.63H1211.21V500.37H1206.47V495.63ZM1201.73 495.63H1206.47V500.37H1201.73V495.63ZM1196.99 495.63H1201.73V500.37H1196.99V495.63ZM1192.25 495.63H1196.99V500.37H1192.25V495.63ZM1192.25 500.37H1196.99V505.111H1192.25V500.37ZM1196.99 500.37H1201.73V505.111H1196.99V500.37ZM1201.73 500.37H1206.47V505.111H1201.73V500.37ZM1206.47 500.37H1211.21V505.111H1206.47V500.37ZM1215.96 500.37H1220.7V505.111H1215.96V500.37ZM1220.7 500.37H1225.44V505.111H1220.7V500.37ZM1225.44 500.37H1230.18V505.111H1225.44V500.37ZM1230.18 500.37H1234.92V505.111H1230.18V500.37ZM1234.92 500.37H1239.66V505.111H1234.92V500.37ZM1211.21 500.37H1215.96V505.111H1211.21V500.37ZM1220.7 505.111H1225.44V509.852H1220.7V505.111ZM1225.44 505.111H1230.18V509.852H1225.44V505.111ZM1234.92 505.111H1239.66V509.852H1234.92V505.111ZM1230.18 505.111H1234.92V509.852H1230.18V505.111ZM1230.18 509.852H1234.92V514.593H1230.18V509.852ZM1230.18 514.593H1234.92V519.333H1230.18V514.593ZM1234.92 514.593H1239.66V519.333H1234.92V514.593ZM1234.92 519.333H1239.66V524.074H1234.92V519.333ZM1234.92 509.852H1239.66V514.593H1234.92V509.852ZM1225.44 514.593H1230.18V519.333H1225.44V514.593ZM1225.44 509.852H1230.18V514.593H1225.44V509.852ZM1220.7 514.593H1225.44V519.333H1220.7V514.593ZM1225.44 519.333H1230.18V524.074H1225.44V519.333ZM1230.18 519.333H1234.92V524.074H1230.18V519.333ZM1230.18 524.074H1234.92V528.815H1230.18V524.074ZM1230.18 528.815H1234.92V533.556H1230.18V528.815ZM1234.92 528.815H1239.66V533.556H1234.92V528.815ZM1234.92 533.556H1239.66V538.296H1234.92V533.556ZM1234.92 538.296H1239.66V543.037H1234.92V538.296ZM1234.92 543.037H1239.66V547.778H1234.92V543.037ZM1234.92 547.778H1239.66V552.519H1234.92V547.778ZM1230.18 547.778H1234.92V552.519H1230.18V547.778ZM1230.18 552.519H1234.92V557.259H1230.18V552.519ZM1225.44 552.519H1230.18V557.259H1225.44V552.519ZM1225.44 547.778H1230.18V552.519H1225.44V547.778ZM1220.7 547.778H1225.44V552.519H1220.7V547.778ZM1220.7 543.037H1225.44V547.778H1220.7V543.037ZM1225.44 543.037H1230.18V547.778H1225.44V543.037ZM1230.18 543.037H1234.92V547.778H1230.18V543.037ZM1230.18 538.296H1234.92V543.037H1230.18V538.296ZM1230.18 533.556H1234.92V538.296H1230.18V533.556ZM1225.44 533.556H1230.18V538.296H1225.44V533.556ZM1225.44 538.296H1230.18V543.037H1225.44V538.296ZM1220.7 533.556H1225.44V538.296H1220.7V533.556ZM1220.7 528.815H1225.44V533.556H1220.7V528.815ZM1225.44 528.815H1230.18V533.556H1225.44V528.815ZM1225.44 524.074H1230.18V528.815H1225.44V524.074ZM1220.7 524.074H1225.44V528.815H1220.7V524.074ZM1220.7 519.333H1225.44V524.074H1220.7V519.333ZM1215.96 528.815H1220.7V533.556H1215.96V528.815ZM1211.21 528.815H1215.96V533.556H1211.21V528.815ZM1206.47 528.815H1211.21V533.556H1206.47V528.815ZM1206.47 524.074H1211.21V528.815H1206.47V524.074ZM1211.21 524.074H1215.96V528.815H1211.21V524.074ZM1211.21 519.333H1215.96V524.074H1211.21V519.333ZM1215.96 519.333H1220.7V524.074H1215.96V519.333ZM1206.47 519.333H1211.21V524.074H1206.47V519.333ZM1215.96 524.074H1220.7V528.815H1215.96V524.074ZM1196.99 505.111H1201.73V509.852H1196.99V505.111ZM1201.73 505.111H1206.47V509.852H1201.73V505.111ZM1201.73 509.852H1206.47V514.593H1201.73V509.852ZM1201.73 514.593H1206.47V519.333H1201.73V514.593ZM1201.73 519.333H1206.47V524.074H1201.73V519.333ZM1196.99 519.333H1201.73V524.074H1196.99V519.333ZM1192.25 519.333H1196.99V524.074H1192.25V519.333ZM1192.25 514.593H1196.99V519.333H1192.25V514.593ZM1192.25 509.852H1196.99V514.593H1192.25V509.852ZM1192.25 505.111H1196.99V509.852H1192.25V505.111ZM1196.99 514.593H1201.73V519.333H1196.99V514.593ZM1196.99 524.074H1201.73V528.815H1196.99V524.074ZM1196.99 509.852H1201.73V514.593H1196.99V509.852ZM1192.25 524.074H1196.99V528.815H1192.25V524.074ZM1192.25 528.815H1196.99V533.556H1192.25V528.815ZM1196.99 528.815H1201.73V533.556H1196.99V528.815ZM1201.73 524.074H1206.47V528.815H1201.73V524.074ZM1201.73 528.815H1206.47V533.556H1201.73V528.815ZM1201.73 533.556H1206.47V538.296H1201.73V533.556ZM1201.73 538.296H1206.47V543.037H1201.73V538.296ZM1201.73 543.037H1206.47V547.778H1201.73V543.037ZM1201.73 547.778H1206.47V552.519H1201.73V547.778ZM1206.47 547.778H1211.21V552.519H1206.47V547.778ZM1211.21 547.778H1215.96V552.519H1211.21V547.778ZM1215.96 547.778H1220.7V552.519H1215.96V547.778ZM1220.7 552.519H1225.44V557.259H1220.7V552.519ZM1225.44 557.259H1230.18V562H1225.44V557.259ZM1220.7 557.259H1225.44V562H1220.7V557.259ZM1215.96 557.259H1220.7V562H1215.96V557.259ZM1211.21 557.259H1215.96V562H1211.21V557.259ZM1206.47 557.259H1211.21V562H1206.47V557.259ZM1201.73 557.259H1206.47V562H1201.73V557.259ZM1196.99 557.259H1201.73V562H1196.99V557.259ZM1192.25 557.259H1196.99V562H1192.25V557.259ZM1192.25 552.519H1196.99V557.259H1192.25V552.519ZM1192.25 547.778H1196.99V552.519H1192.25V547.778ZM1192.25 543.037H1196.99V547.778H1192.25V543.037ZM1192.25 538.296H1196.99V543.037H1192.25V538.296ZM1192.25 533.556H1196.99V538.296H1192.25V533.556ZM1196.99 533.556H1201.73V538.296H1196.99V533.556ZM1196.99 538.296H1201.73V543.037H1196.99V538.296ZM1196.99 543.037H1201.73V547.778H1196.99V543.037ZM1196.99 547.778H1201.73V552.519H1196.99V547.778ZM1196.99 552.519H1201.73V557.259H1196.99V552.519ZM1201.73 552.519H1206.47V557.259H1201.73V552.519ZM1206.47 552.519H1211.21V557.259H1206.47V552.519ZM1211.21 552.519H1215.96V557.259H1211.21V552.519ZM1215.96 552.519H1220.7V557.259H1215.96V552.519ZM1287.05 490.889H1291.79V495.63H1287.05V490.889ZM1282.31 490.889H1287.05V495.63H1282.31V490.889ZM1277.57 490.889H1282.31V495.63H1277.57V490.889ZM1268.09 490.889H1272.83V495.63H1268.09V490.889ZM1263.35 490.889H1268.09V495.63H1263.35V490.889ZM1258.61 490.889H1263.35V495.63H1258.61V490.889ZM1272.83 490.889H1277.57V495.63H1272.83V490.889ZM1272.83 495.63H1277.57V500.37H1272.83V495.63ZM1277.57 495.63H1282.31V500.37H1277.57V495.63ZM1282.31 495.63H1287.05V500.37H1282.31V495.63ZM1287.05 495.63H1291.79V500.37H1287.05V495.63ZM1291.79 495.63H1296.53V500.37H1291.79V495.63ZM1268.09 495.63H1272.83V500.37H1268.09V495.63ZM1263.35 495.63H1268.09V500.37H1263.35V495.63ZM1258.61 495.63H1263.35V500.37H1258.61V495.63ZM1253.87 495.63H1258.61V500.37H1253.87V495.63ZM1249.13 500.37H1253.87V505.111H1249.13V500.37ZM1253.87 500.37H1258.61V505.111H1253.87V500.37ZM1258.61 500.37H1263.35V505.111H1258.61V500.37ZM1263.35 500.37H1268.09V505.111H1263.35V500.37ZM1268.09 500.37H1272.83V505.111H1268.09V500.37ZM1272.83 500.37H1277.57V505.111H1272.83V500.37ZM1277.57 500.37H1282.31V505.111H1277.57V500.37ZM1282.31 500.37H1287.05V505.111H1282.31V500.37ZM1287.05 500.37H1291.79V505.111H1287.05V500.37ZM1291.79 500.37H1296.53V505.111H1291.79V500.37ZM1296.53 500.37H1301.27V505.111H1296.53V500.37ZM1296.53 505.111H1301.27V509.852H1296.53V505.111ZM1296.53 509.852H1301.27V514.593H1296.53V509.852ZM1291.79 509.852H1296.53V514.593H1291.79V509.852ZM1291.79 505.111H1296.53V509.852H1291.79V505.111ZM1287.05 509.852H1291.79V514.593H1287.05V509.852ZM1287.05 505.111H1291.79V509.852H1287.05V505.111ZM1282.31 505.111H1287.05V509.852H1282.31V505.111ZM1263.35 505.111H1268.09V509.852H1263.35V505.111ZM1258.61 505.111H1263.35V509.852H1258.61V505.111ZM1253.87 505.111H1258.61V509.852H1253.87V505.111ZM1249.13 505.111H1253.87V509.852H1249.13V505.111ZM1249.13 509.852H1253.87V514.593H1249.13V509.852ZM1253.87 509.852H1258.61V514.593H1253.87V509.852ZM1253.87 514.593H1258.61V519.333H1253.87V514.593ZM1258.61 509.852H1263.35V514.593H1258.61V509.852ZM1258.61 514.593H1263.35V519.333H1258.61V514.593ZM1263.35 514.593H1268.09V519.333H1263.35V514.593ZM1249.13 514.593H1253.87V519.333H1249.13V514.593ZM1249.13 519.333H1253.87V524.074H1249.13V519.333ZM1253.87 519.333H1258.61V524.074H1253.87V519.333ZM1253.87 524.074H1258.61V528.815H1253.87V524.074ZM1258.61 524.074H1263.35V528.815H1258.61V524.074ZM1258.61 519.333H1263.35V524.074H1258.61V519.333ZM1263.35 519.333H1268.09V524.074H1263.35V519.333ZM1263.35 524.074H1268.09V528.815H1263.35V524.074ZM1258.61 528.815H1263.35V533.556H1258.61V528.815ZM1263.35 528.815H1268.09V533.556H1263.35V528.815ZM1268.09 528.815H1272.83V533.556H1268.09V528.815ZM1272.83 528.815H1277.57V533.556H1272.83V528.815ZM1277.57 528.815H1282.31V533.556H1277.57V528.815ZM1277.57 524.074H1282.31V528.815H1277.57V524.074ZM1282.31 524.074H1287.05V528.815H1282.31V524.074ZM1287.05 524.074H1291.79V528.815H1287.05V524.074ZM1287.05 519.333H1291.79V524.074H1287.05V519.333ZM1282.31 519.333H1287.05V524.074H1282.31V519.333ZM1277.57 519.333H1282.31V524.074H1277.57V519.333ZM1272.83 519.333H1277.57V524.074H1272.83V519.333ZM1272.83 524.074H1277.57V528.815H1272.83V524.074ZM1268.09 524.074H1272.83V528.815H1268.09V524.074ZM1268.09 519.333H1272.83V524.074H1268.09V519.333ZM1291.79 524.074H1296.53V528.815H1291.79V524.074ZM1291.79 528.815H1296.53V533.556H1291.79V528.815ZM1287.05 528.815H1291.79V533.556H1287.05V528.815ZM1287.05 533.556H1291.79V538.296H1287.05V533.556ZM1282.31 533.556H1287.05V538.296H1282.31V533.556ZM1282.31 528.815H1287.05V533.556H1282.31V528.815ZM1291.79 533.556H1296.53V538.296H1291.79V533.556ZM1296.53 533.556H1301.27V538.296H1296.53V533.556ZM1296.53 528.815H1301.27V533.556H1296.53V528.815ZM1296.53 538.296H1301.27V543.037H1296.53V538.296ZM1296.53 543.037H1301.27V547.778H1296.53V543.037ZM1296.53 547.778H1301.27V552.519H1296.53V547.778ZM1291.79 547.778H1296.53V552.519H1291.79V547.778ZM1291.79 552.519H1296.53V557.259H1291.79V552.519ZM1287.05 552.519H1291.79V557.259H1287.05V552.519ZM1287.05 547.778H1291.79V552.519H1287.05V547.778ZM1282.31 547.778H1287.05V552.519H1282.31V547.778ZM1282.31 543.037H1287.05V547.778H1282.31V543.037ZM1287.05 543.037H1291.79V547.778H1287.05V543.037ZM1287.05 538.296H1291.79V543.037H1287.05V538.296ZM1291.79 538.296H1296.53V543.037H1291.79V538.296ZM1291.79 543.037H1296.53V547.778H1291.79V543.037ZM1249.13 538.296H1253.87V543.037H1249.13V538.296ZM1249.13 543.037H1253.87V547.778H1249.13V543.037ZM1253.87 543.037H1258.61V547.778H1253.87V543.037ZM1253.87 538.296H1258.61V543.037H1253.87V538.296ZM1258.61 538.296H1263.35V543.037H1258.61V538.296ZM1258.61 543.037H1263.35V547.778H1258.61V543.037ZM1249.13 547.778H1253.87V552.519H1249.13V547.778ZM1253.87 547.778H1258.61V552.519H1253.87V547.778ZM1263.35 543.037H1268.09V547.778H1263.35V543.037ZM1263.35 547.778H1268.09V552.519H1263.35V547.778ZM1258.61 547.778H1263.35V552.519H1258.61V547.778ZM1258.61 552.519H1263.35V557.259H1258.61V552.519ZM1253.87 552.519H1258.61V557.259H1253.87V552.519ZM1258.61 557.259H1263.35V562H1258.61V557.259ZM1263.35 557.259H1268.09V562H1263.35V557.259ZM1268.09 557.259H1272.83V562H1268.09V557.259ZM1272.83 557.259H1277.57V562H1272.83V557.259ZM1277.57 557.259H1282.31V562H1277.57V557.259ZM1282.31 557.259H1287.05V562H1282.31V557.259ZM1287.05 557.259H1291.79V562H1287.05V557.259ZM1282.31 552.519H1287.05V557.259H1282.31V552.519ZM1277.57 552.519H1282.31V557.259H1277.57V552.519ZM1272.83 552.519H1277.57V557.259H1272.83V552.519ZM1272.83 547.778H1277.57V552.519H1272.83V547.778ZM1268.09 547.778H1272.83V552.519H1268.09V547.778ZM1277.57 547.778H1282.31V552.519H1277.57V547.778ZM1268.09 552.519H1272.83V557.259H1268.09V552.519ZM1263.35 552.519H1268.09V557.259H1263.35V552.519Z" fill="white" style="fill:white;fill-opacity:1;"/>
</svg>
